<svg xmlns="http://www.w3.org/2000/svg" xmlns:xlink="http://www.w3.org/1999/xlink" width="1024" zoomAndPan="magnify" viewBox="0 0 768 1010.999991" height="1348" preserveAspectRatio="xMidYMid meet" version="1.0"><defs><g/><clipPath id="4b4526a8af"><path d="M 87 37.382812 L 229 37.382812 L 229 179 L 87 179 Z M 87 37.382812 " clip-rule="nonzero"/></clipPath><clipPath id="cd366c913b"><path d="M 220.027344 934.265625 L 547.777344 934.265625 L 547.777344 935 L 220.027344 935 Z M 220.027344 934.265625 " clip-rule="nonzero"/></clipPath></defs><rect x="-76.8" width="921.6" fill="#ffffff" y="-101.099999" height="1213.199989" fill-opacity="1"/><path fill="#ffde59" d="M 165.15625 274.496094 L 575.488281 274.496094 L 575.488281 779.976562 L 165.15625 779.976562 Z M 165.15625 274.496094 " fill-opacity="1" fill-rule="nonzero"/><path fill="#2f2f2f" d="M 164.277344 273.617188 L 576.367188 273.617188 L 576.367188 780.855469 L 164.277344 780.855469 Z M 166.035156 275.375 L 166.035156 779.097656 L 336.613281 779.097656 C 322.574219 759.695312 322.972656 741.554688 330.160156 733 C 333.617188 728.882812 339.375 728.101562 344.378906 728.703125 C 358.972656 730.460938 374.519531 740.289062 385.949219 753.742188 C 387.851562 732.660156 394.328125 720.257812 402.800781 714.171875 C 408.617188 709.996094 416.824219 709.570312 422.703125 713.796875 C 431.035156 719.78125 436.835938 732.542969 439.269531 752.535156 C 454.566406 735.246094 472.511719 728.800781 484.921875 729.667969 C 489.078125 729.957031 493.3125 731.625 495.964844 735.027344 C 500.691406 741.089844 500.046875 749.617188 497.628906 757.859375 C 495.371094 765.5625 491.472656 773.300781 488.476562 779.097656 L 574.609375 779.097656 L 574.609375 275.375 Z M 486.496094 779.097656 C 489.546875 773.207031 493.628906 765.25 495.941406 757.363281 C 498.335938 749.210938 498.742188 741.453125 494.578125 736.109375 C 492.316406 733.210938 488.613281 731.6875 484.796875 731.421875 C 472.703125 730.574219 454.589844 737.09375 439.296875 755.195312 C 433.855469 761.636719 428.773438 769.539062 424.453125 779.097656 Z M 422.527344 779.097656 C 426.914062 769.21875 432.113281 761.03125 437.707031 754.347656 C 435.410156 733.542969 429.597656 720.914062 421.679688 715.222656 C 416.472656 711.484375 409.097656 711.816406 403.824219 715.601562 C 395.683594 721.449219 389.152344 733.855469 387.527344 756.03125 C 387.03125 762.792969 386.992188 770.457031 387.503906 779.097656 Z M 385.742188 779.097656 C 385.242188 770.578125 385.273438 762.988281 385.75 756.25 C 374.414062 742.320312 358.679688 732.195312 344.167969 730.449219 C 339.378906 729.875 334.390625 730.695312 331.507812 734.132812 C 324.949219 741.9375 324.203125 759.613281 338.796875 779.097656 Z M 385.742188 779.097656 " fill-opacity="1" fill-rule="evenodd"/><path fill="#ffffff" d="M 196.378906 305.714844 L 545.753906 305.714844 L 545.753906 748.757812 L 196.378906 748.757812 Z M 196.378906 305.714844 " fill-opacity="1" fill-rule="nonzero"/><path fill="#2f2f2f" d="M 195.5 304.835938 L 546.636719 304.835938 L 546.636719 749.636719 L 195.5 749.636719 Z M 197.257812 306.59375 L 197.257812 747.875 L 544.875 747.875 L 544.875 306.59375 Z M 197.257812 306.59375 " fill-opacity="1" fill-rule="evenodd"/><path fill="#2f2f2f" d="M 494.460938 457.496094 L 331.667969 457.496094 L 331.667969 455.734375 L 494.460938 455.734375 Z M 494.460938 476.824219 L 331.667969 476.824219 L 331.667969 475.066406 L 494.460938 475.066406 Z M 494.460938 497.636719 L 331.667969 497.636719 L 331.667969 495.878906 L 494.460938 495.878906 Z M 494.460938 497.636719 " fill-opacity="1" fill-rule="evenodd"/><path fill="#2f2f2f" d="M 494.460938 554.132812 L 331.667969 554.132812 L 331.667969 552.375 L 494.460938 552.375 Z M 494.460938 573.460938 L 331.667969 573.460938 L 331.667969 571.703125 L 494.460938 571.703125 Z M 494.460938 594.273438 L 331.667969 594.273438 L 331.667969 592.515625 L 494.460938 592.515625 Z M 494.460938 594.273438 " fill-opacity="1" fill-rule="evenodd"/><path fill="#2f2f2f" d="M 494.460938 650.769531 L 331.667969 650.769531 L 331.667969 649.011719 L 494.460938 649.011719 Z M 494.460938 670.097656 L 331.667969 670.097656 L 331.667969 668.335938 L 494.460938 668.335938 Z M 494.460938 690.910156 L 331.667969 690.910156 L 331.667969 689.152344 L 494.460938 689.152344 Z M 494.460938 690.910156 " fill-opacity="1" fill-rule="evenodd"/><path fill="#ffffff" d="M 269.222656 661.78125 L 260.300781 670.703125 L 276.65625 689.289062 L 304.160156 661.78125 L 295.242188 652.863281 L 278.144531 670.703125 Z M 269.222656 661.78125 " fill-opacity="1" fill-rule="nonzero"/><path fill="#2f2f2f" d="M 295.230469 651.605469 L 305.40625 661.785156 L 276.617188 690.570312 L 259.101562 670.664062 L 269.226562 660.539062 L 278.132812 669.449219 Z M 295.257812 654.121094 L 278.160156 671.960938 L 269.226562 663.027344 L 261.511719 670.742188 L 276.703125 688.003906 L 302.921875 661.785156 Z M 295.257812 654.121094 " fill-opacity="1" fill-rule="evenodd"/><path fill="#ffde59" d="M 269.222656 565.144531 L 260.300781 574.066406 L 276.65625 592.652344 L 304.160156 565.144531 L 295.242188 556.226562 L 278.144531 574.066406 Z M 269.222656 565.144531 " fill-opacity="1" fill-rule="nonzero"/><path fill="#2f2f2f" d="M 295.230469 554.96875 L 305.40625 565.148438 L 276.617188 593.933594 L 259.101562 574.03125 L 269.226562 563.90625 L 278.132812 572.8125 Z M 295.257812 557.484375 L 278.160156 575.324219 L 269.226562 566.390625 L 261.511719 574.105469 L 276.703125 591.367188 L 302.921875 565.148438 Z M 295.257812 557.484375 " fill-opacity="1" fill-rule="evenodd"/><path fill="#fff493" d="M 269.222656 469.996094 L 260.300781 478.917969 L 276.65625 497.5 L 304.160156 469.996094 L 295.242188 461.078125 L 278.144531 478.917969 Z M 269.222656 469.996094 " fill-opacity="1" fill-rule="nonzero"/><path fill="#2f2f2f" d="M 295.230469 459.820312 L 305.40625 469.996094 L 276.617188 498.785156 L 259.101562 478.878906 L 269.226562 468.753906 L 278.132812 477.660156 Z M 295.257812 462.332031 L 278.160156 480.171875 L 269.226562 471.242188 L 261.511719 478.957031 L 276.703125 496.21875 L 302.921875 469.996094 Z M 295.257812 462.332031 " fill-opacity="1" fill-rule="evenodd"/><path fill="#fff493" d="M 462.496094 305.714844 L 462.496094 274.496094 C 462.496094 271.210938 459.835938 268.546875 456.550781 268.546875 L 413.34375 268.546875 C 411.863281 245.300781 393.167969 226.921875 370.324219 226.921875 C 347.476562 226.921875 328.78125 245.300781 327.300781 268.546875 L 285.578125 268.546875 C 282.296875 268.546875 279.632812 271.210938 279.632812 274.496094 L 279.632812 305.714844 Z M 462.496094 305.714844 " fill-opacity="1" fill-rule="nonzero"/><path fill="#2f2f2f" d="M 370.324219 227.800781 C 347.96875 227.800781 329.628906 245.792969 328.179688 268.605469 L 328.128906 269.425781 L 285.578125 269.425781 C 282.78125 269.425781 280.511719 271.695312 280.511719 274.496094 L 280.511719 304.835938 L 461.617188 304.835938 L 461.617188 274.496094 C 461.617188 271.695312 459.351562 269.425781 456.550781 269.425781 L 412.519531 269.425781 L 412.464844 268.605469 C 411.011719 245.792969 392.675781 227.800781 370.324219 227.800781 Z M 326.484375 267.667969 C 328.375 244.378906 347.253906 226.042969 370.324219 226.042969 C 393.386719 226.042969 412.269531 244.378906 414.160156 267.667969 L 456.550781 267.667969 C 460.320312 267.667969 463.375 270.722656 463.375 274.496094 L 463.375 306.59375 L 278.75 306.59375 L 278.75 274.496094 C 278.75 270.722656 281.808594 267.667969 285.578125 267.667969 Z M 326.484375 267.667969 " fill-opacity="1" fill-rule="evenodd"/><path fill="#ffffff" d="M 380.730469 261.113281 C 380.730469 266.859375 376.070312 271.519531 370.324219 271.519531 C 364.574219 271.519531 359.914062 266.859375 359.914062 261.113281 C 359.914062 255.367188 364.574219 250.707031 370.324219 250.707031 C 376.070312 250.707031 380.730469 255.367188 380.730469 261.113281 Z M 380.730469 261.113281 " fill-opacity="1" fill-rule="nonzero"/><path fill="#2f2f2f" d="M 370.324219 251.585938 C 365.0625 251.585938 360.796875 255.851562 360.796875 261.113281 C 360.796875 266.375 365.0625 270.640625 370.324219 270.640625 C 375.585938 270.640625 379.851562 266.375 379.851562 261.113281 C 379.851562 255.851562 375.585938 251.585938 370.324219 251.585938 Z M 359.035156 261.113281 C 359.035156 254.882812 364.089844 249.828125 370.324219 249.828125 C 376.554688 249.828125 381.609375 254.882812 381.609375 261.113281 C 381.609375 267.347656 376.554688 272.398438 370.324219 272.398438 C 364.089844 272.398438 359.035156 267.347656 359.035156 261.113281 Z M 359.035156 261.113281 " fill-opacity="1" fill-rule="evenodd"/><path fill="#2f2f2f" d="M 247.535156 633.398438 L 317.679688 633.398438 L 317.679688 705.035156 L 247.535156 705.035156 Z M 249.292969 635.15625 L 249.292969 703.277344 L 315.921875 703.277344 L 315.921875 635.15625 Z M 249.292969 635.15625 " fill-opacity="1" fill-rule="evenodd"/><path fill="#2f2f2f" d="M 247.535156 536.761719 L 317.679688 536.761719 L 317.679688 608.398438 L 247.535156 608.398438 Z M 249.292969 538.523438 L 249.292969 606.640625 L 315.921875 606.640625 L 315.921875 538.523438 Z M 249.292969 538.523438 " fill-opacity="1" fill-rule="evenodd"/><path fill="#2f2f2f" d="M 247.535156 441.613281 L 317.679688 441.613281 L 317.679688 513.246094 L 247.535156 513.246094 Z M 249.292969 443.371094 L 249.292969 511.488281 L 315.921875 511.488281 L 315.921875 443.371094 Z M 249.292969 443.371094 " fill-opacity="1" fill-rule="evenodd"/><path fill="#fff493" d="M 223.136719 357.75 L 518.992188 357.75 L 518.992188 390.457031 L 223.136719 390.457031 Z M 223.136719 357.75 " fill-opacity="1" fill-rule="nonzero"/><path fill="#2f2f2f" d="M 222.257812 356.871094 L 519.871094 356.871094 L 519.871094 391.335938 L 222.257812 391.335938 Z M 224.015625 358.628906 L 224.015625 389.578125 L 518.113281 389.578125 L 518.113281 358.628906 Z M 224.015625 358.628906 " fill-opacity="1" fill-rule="evenodd"/><path fill="#fff493" d="M 338.359375 779.976562 C 323.378906 760.199219 323.855469 741.875 330.835938 733.566406 C 334.007812 729.789062 339.378906 728.988281 344.277344 729.578125 C 359.175781 731.367188 375.207031 741.777344 386.652344 755.964844 C 388.285156 733.679688 394.863281 720.957031 403.3125 714.886719 C 408.859375 710.902344 416.648438 710.527344 422.191406 714.511719 C 430.476562 720.464844 436.351562 733.539062 438.625 754.628906 C 454.0625 736.359375 472.429688 729.675781 484.859375 730.546875 C 488.847656 730.824219 492.816406 732.417969 495.273438 735.566406 C 504.148438 746.960938 493.203125 768.074219 487.058594 779.925781 L 487.03125 779.976562 Z M 338.359375 779.976562 " fill-opacity="1" fill-rule="nonzero"/><path fill="#2f2f2f" d="M 402.800781 714.171875 C 408.617188 709.996094 416.820312 709.570312 422.703125 713.796875 C 431.035156 719.78125 436.835938 732.542969 439.269531 752.535156 C 454.566406 735.246094 472.511719 728.800781 484.921875 729.667969 C 489.078125 729.957031 493.3125 731.625 495.964844 735.027344 C 500.683594 741.082031 500.050781 749.589844 497.640625 757.820312 C 495.21875 766.085938 490.914062 774.390625 487.851562 780.300781 L 487.835938 780.332031 L 487.5625 780.855469 L 337.917969 780.855469 L 337.65625 780.507812 C 322.558594 760.578125 322.800781 741.761719 330.160156 733 C 333.617188 728.882812 339.375 728.101562 344.378906 728.703125 C 358.972656 730.460938 374.519531 740.289062 385.949219 753.742188 C 387.847656 732.660156 394.328125 720.257812 402.800781 714.171875 Z M 385.75 756.25 C 374.414062 742.320312 358.679688 732.195312 344.167969 730.449219 C 339.378906 729.875 334.390625 730.695312 331.507812 734.132812 C 324.949219 741.9375 324.203125 759.613281 338.796875 779.097656 L 385.742188 779.097656 C 385.242188 770.578125 385.273438 762.988281 385.75 756.25 Z M 387.503906 779.097656 L 422.527344 779.097656 C 426.914062 769.21875 432.113281 761.03125 437.707031 754.347656 C 435.410156 733.542969 429.597656 720.914062 421.675781 715.222656 C 416.472656 711.484375 409.097656 711.816406 403.824219 715.601562 C 395.679688 721.449219 389.152344 733.855469 387.527344 756.03125 C 387.03125 762.792969 386.992188 770.457031 387.503906 779.097656 Z M 424.453125 779.097656 L 486.492188 779.097656 C 489.550781 773.199219 493.640625 765.226562 495.953125 757.328125 C 498.335938 749.191406 498.734375 741.445312 494.578125 736.109375 C 492.316406 733.210938 488.613281 731.6875 484.796875 731.421875 C 472.703125 730.574219 454.589844 737.09375 439.296875 755.195312 C 433.855469 761.636719 428.773438 769.539062 424.453125 779.097656 Z M 424.453125 779.097656 " fill-opacity="1" fill-rule="evenodd"/><path fill="#2f2f2f" d="M 412.828125 746.1875 L 422.929688 737.53125 L 421.785156 736.195312 L 412.828125 743.871094 L 412.828125 726.457031 L 411.070312 726.457031 L 411.070312 743.660156 L 403.648438 736.238281 L 402.40625 737.484375 L 411.070312 746.148438 L 411.070312 758.632812 L 402.140625 750.34375 L 400.945312 751.628906 L 411.070312 761.035156 L 411.070312 774.773438 L 412.828125 774.773438 L 412.828125 760.992188 L 421.515625 751.582031 L 420.222656 750.390625 L 412.828125 758.402344 Z M 412.828125 746.1875 " fill-opacity="1" fill-rule="evenodd"/><path fill="#2f2f2f" d="M 472.820312 757.207031 L 485.300781 758.566406 L 485.488281 756.820312 L 474.320312 755.601562 L 484.613281 744.558594 L 483.328125 743.359375 L 473.15625 754.269531 L 472.132812 744.421875 L 470.382812 744.601562 L 471.5625 755.976562 L 464.253906 763.816406 L 462.644531 752.378906 L 460.90625 752.625 L 462.710938 765.46875 L 454.597656 774.167969 L 455.882812 775.367188 L 464.023438 766.640625 L 475.914062 766.5625 L 475.902344 764.804688 L 465.671875 764.871094 Z M 472.820312 757.207031 " fill-opacity="1" fill-rule="evenodd"/><path fill="#2f2f2f" d="M 252.695312 715.136719 L 240.21875 716.5 L 240.027344 714.753906 L 251.199219 713.53125 L 240.902344 702.492188 L 242.1875 701.292969 L 252.363281 712.203125 L 253.382812 702.355469 L 255.132812 702.535156 L 253.953125 713.910156 L 261.261719 721.75 L 262.871094 710.3125 L 264.613281 710.558594 L 262.804688 723.402344 L 270.917969 732.101562 L 269.632812 733.300781 L 261.492188 724.574219 L 249.601562 724.496094 L 249.613281 722.738281 L 259.839844 722.804688 Z M 252.695312 715.136719 " fill-opacity="1" fill-rule="evenodd"/><path fill="#ffde59" d="M 99.855469 778.847656 L 47.046875 769.246094 C 41.269531 768.199219 37.460938 762.632812 38.574219 756.871094 L 43.144531 733.144531 L 116.382812 748.011719 L 112.105469 770.441406 C 111.019531 776.132812 105.554688 779.886719 99.855469 778.847656 Z M 99.855469 778.847656 " fill-opacity="1" fill-rule="nonzero"/><path fill="#ffffff" d="M 116.382812 748.011719 L 43.144531 733.148438 L 48.875 703.410156 L 73.171875 708.347656 L 96.765625 713.144531 L 122.050781 718.277344 Z M 116.382812 748.011719 " fill-opacity="1" fill-rule="nonzero"/><path fill="#fff493" d="M 91.5625 481.890625 L 115.347656 486.410156 L 73.167969 708.347656 L 96.765625 713.144531 L 140.621094 491.210938 L 164.378906 495.726562 L 122.046875 718.277344 L 96.765625 713.144531 L 73.167969 708.347656 L 48.871094 703.410156 Z M 91.5625 481.890625 " fill-opacity="1" fill-rule="nonzero"/><path fill="#ffffff" d="M 91.5625 481.890625 L 116.835938 457.429688 L 149.167969 462.5625 L 164.269531 495.707031 L 140.625 491.210938 L 96.765625 713.140625 L 73.171875 708.347656 L 115.351562 486.410156 Z M 91.5625 481.890625 " fill-opacity="1" fill-rule="nonzero"/><path fill="#2f2f2f" d="M 108.484375 731.03125 L 54.21875 719.882812 L 54.574219 718.160156 L 108.839844 729.3125 Z M 108.484375 731.03125 " fill-opacity="1" fill-rule="evenodd"/><path fill="#2f2f2f" d="M 137.933594 435.792969 L 164.882812 494.925781 L 166.0625 495.152344 L 165.734375 496.878906 L 165.164062 496.769531 L 112.96875 770.609375 C 111.796875 776.769531 105.871094 780.835938 99.699219 779.714844 L 46.886719 770.113281 C 40.632812 768.972656 36.507812 762.949219 37.710938 756.703125 L 90.753906 481.453125 Z M 162.765625 494.527344 L 148.566406 463.355469 L 117.132812 458.367188 L 93.394531 481.34375 Z M 92.261719 482.917969 L 114.324219 487.109375 L 72.472656 707.308594 L 49.902344 702.722656 Z M 49.570312 704.449219 L 44.171875 732.457031 L 115.683594 746.976562 L 121.023438 718.964844 Z M 121.351562 717.238281 L 163.4375 496.441406 L 141.316406 492.238281 L 97.800781 712.453125 Z M 96.074219 712.101562 L 139.589844 491.910156 L 116.050781 487.4375 L 74.199219 707.660156 Z M 115.355469 748.703125 L 43.839844 734.183594 L 39.4375 757.035156 C 38.417969 762.320312 41.90625 767.421875 47.203125 768.382812 L 100.011719 777.984375 C 105.234375 778.933594 110.25 775.496094 111.242188 770.28125 Z M 118.714844 456.839844 L 147.6875 461.4375 L 137.367188 438.785156 Z M 118.714844 456.839844 " fill-opacity="1" fill-rule="evenodd"/><path fill="#2f2f2f" d="M 116.835938 457.433594 L 137.648438 437.289062 L 149.167969 462.5625 Z M 116.835938 457.433594 " fill-opacity="1" fill-rule="nonzero"/><path fill="#2f2f2f" d="M 137.933594 435.792969 L 150.648438 463.6875 L 114.960938 458.023438 Z M 118.714844 456.839844 L 147.6875 461.4375 L 137.367188 438.785156 Z M 118.714844 456.839844 " fill-opacity="1" fill-rule="evenodd"/><path fill="#2f2f2f" d="M 64.183594 422.300781 L 64.183594 409.394531 L 65.941406 409.394531 L 65.941406 422.300781 Z M 57.746094 430.496094 L 44.839844 430.496094 L 44.839844 428.738281 L 57.746094 428.738281 Z M 85.285156 430.496094 L 72.375 430.496094 L 72.375 428.738281 L 85.285156 428.738281 Z M 64.183594 449.839844 L 64.183594 436.929688 L 65.941406 436.929688 L 65.941406 449.839844 Z M 64.183594 449.839844 " fill-opacity="1" fill-rule="evenodd"/><path fill="#2f2f2f" d="M 109.023438 211.214844 L 109.023438 196.625 L 110.78125 196.625 L 110.78125 211.214844 Z M 100.996094 220.363281 L 85.285156 220.363281 L 85.285156 218.605469 L 100.996094 218.605469 Z M 134.519531 220.363281 L 118.808594 220.363281 L 118.808594 218.605469 L 134.519531 218.605469 Z M 109.023438 242.34375 L 109.023438 227.753906 L 110.78125 227.753906 L 110.78125 242.34375 Z M 109.023438 242.34375 " fill-opacity="1" fill-rule="evenodd"/><path fill="#ffffff" d="M 115.117188 335.507812 C 115.117188 356.859375 97.808594 374.164062 76.460938 374.164062 C 55.113281 374.164062 37.804688 356.859375 37.804688 335.507812 C 37.804688 314.160156 55.113281 296.855469 76.460938 296.855469 C 97.808594 296.855469 115.117188 314.160156 115.117188 335.507812 Z M 115.117188 335.507812 " fill-opacity="1" fill-rule="nonzero"/><path fill="#2f2f2f" d="M 76.460938 297.734375 C 55.597656 297.734375 38.683594 314.648438 38.683594 335.507812 C 38.683594 356.371094 55.597656 373.285156 76.460938 373.285156 C 97.324219 373.285156 114.234375 356.371094 114.234375 335.507812 C 114.234375 314.648438 97.324219 297.734375 76.460938 297.734375 Z M 36.925781 335.507812 C 36.925781 313.675781 54.625 295.976562 76.460938 295.976562 C 98.292969 295.976562 115.996094 313.675781 115.996094 335.507812 C 115.996094 357.34375 98.292969 375.042969 76.460938 375.042969 C 54.625 375.042969 36.925781 357.34375 36.925781 335.507812 Z M 36.925781 335.507812 " fill-opacity="1" fill-rule="evenodd"/><path fill="#2f2f2f" d="M 76.460938 306.722656 C 60.5625 306.722656 47.671875 319.609375 47.671875 335.511719 C 47.671875 351.410156 60.5625 364.296875 76.460938 364.296875 C 92.355469 364.296875 105.246094 351.410156 105.246094 335.511719 C 105.246094 319.609375 92.355469 306.722656 76.460938 306.722656 Z M 45.914062 335.511719 C 45.914062 318.640625 59.589844 304.964844 76.460938 304.964844 C 93.328125 304.964844 107.003906 318.640625 107.003906 335.511719 C 107.003906 352.378906 93.328125 366.054688 76.460938 366.054688 C 59.589844 366.054688 45.914062 352.378906 45.914062 335.511719 Z M 45.914062 335.511719 " fill-opacity="1" fill-rule="evenodd"/><path fill="#2f2f2f" d="M 75.683594 320.183594 L 75.683594 313.429688 L 77.445312 313.429688 L 77.445312 320.257812 C 80.632812 320.679688 83.8125 322.6875 85.511719 326.457031 L 83.90625 327.175781 C 82.347656 323.710938 79.355469 322.066406 76.523438 321.9375 C 74.585938 321.847656 72.761719 322.46875 71.511719 323.65625 C 70.28125 324.824219 69.53125 326.609375 69.835938 329.03125 C 70.050781 330.722656 70.980469 331.765625 72.378906 332.539062 C 73.757812 333.304688 75.507812 333.757812 77.375 334.242188 C 77.484375 334.269531 77.589844 334.296875 77.695312 334.324219 C 79.609375 334.820312 81.660156 335.375 83.175781 336.425781 C 83.953125 336.964844 84.617188 337.652344 85.058594 338.546875 C 85.496094 339.445312 85.679688 340.492188 85.585938 341.714844 C 85.246094 346.152344 81.425781 348.515625 77.445312 348.746094 L 77.445312 355.175781 L 75.683594 355.175781 L 75.683594 348.710938 C 72 348.351562 68.253906 346.199219 66.636719 341.964844 L 68.277344 341.335938 C 69.722656 345.109375 73.207031 346.929688 76.585938 347.003906 C 80.351562 347.089844 83.566406 345.054688 83.832031 341.582031 C 83.90625 340.617188 83.753906 339.890625 83.476562 339.320312 C 83.199219 338.75 82.761719 338.277344 82.175781 337.871094 C 80.960938 337.035156 79.230469 336.539062 77.253906 336.027344 C 77.125 335.992188 76.996094 335.960938 76.867188 335.925781 C 75.066406 335.460938 73.109375 334.953125 71.527344 334.082031 C 69.773438 333.109375 68.394531 331.640625 68.089844 329.25 C 67.722656 326.316406 68.632812 323.960938 70.300781 322.378906 C 71.734375 321.023438 73.667969 320.28125 75.683594 320.183594 Z M 75.683594 320.183594 " fill-opacity="1" fill-rule="evenodd"/><path fill="#ffffff" d="M 244.265625 282.269531 C 244.265625 313.0625 219.304688 338.023438 188.511719 338.023438 C 157.722656 338.023438 132.761719 313.0625 132.761719 282.269531 C 132.761719 251.480469 157.722656 226.519531 188.511719 226.519531 C 219.304688 226.519531 244.265625 251.480469 244.265625 282.269531 Z M 244.265625 282.269531 " fill-opacity="1" fill-rule="nonzero"/><path fill="#2f2f2f" d="M 188.511719 227.398438 C 158.207031 227.398438 133.640625 251.964844 133.640625 282.269531 C 133.640625 312.574219 158.207031 337.140625 188.511719 337.140625 C 218.820312 337.140625 243.386719 312.574219 243.386719 282.269531 C 243.386719 251.964844 218.820312 227.398438 188.511719 227.398438 Z M 131.882812 282.269531 C 131.882812 250.992188 157.238281 225.636719 188.511719 225.636719 C 219.789062 225.636719 245.144531 250.992188 245.144531 282.269531 C 245.144531 313.546875 219.789062 338.902344 188.511719 338.902344 C 157.238281 338.902344 131.882812 313.546875 131.882812 282.269531 Z M 131.882812 282.269531 " fill-opacity="1" fill-rule="evenodd"/><path fill="#2f2f2f" d="M 188.511719 240.363281 C 165.367188 240.363281 146.605469 259.125 146.605469 282.269531 C 146.605469 305.414062 165.367188 324.175781 188.511719 324.175781 C 211.65625 324.175781 230.417969 305.414062 230.417969 282.269531 C 230.417969 259.125 211.65625 240.363281 188.511719 240.363281 Z M 144.847656 282.269531 C 144.847656 258.152344 164.398438 238.605469 188.511719 238.605469 C 212.628906 238.605469 232.179688 258.152344 232.179688 282.269531 C 232.179688 306.386719 212.628906 325.9375 188.511719 325.9375 C 164.398438 325.9375 144.847656 306.386719 144.847656 282.269531 Z M 144.847656 282.269531 " fill-opacity="1" fill-rule="evenodd"/><path fill="#2f2f2f" d="M 187.78125 260.539062 L 187.78125 250.421875 L 189.539062 250.421875 L 189.539062 260.613281 C 194.125 261.105469 198.761719 263.929688 201.210938 269.371094 L 199.605469 270.09375 C 197.292969 264.949219 192.84375 262.5 188.621094 262.304688 C 185.738281 262.171875 183 263.09375 181.105469 264.890625 C 179.234375 266.667969 178.113281 269.367188 178.570312 272.972656 C 178.898438 275.570312 180.335938 277.167969 182.4375 278.328125 C 184.46875 279.453125 187.039062 280.117188 189.714844 280.8125 C 189.875 280.851562 190.035156 280.894531 190.195312 280.9375 C 192.96875 281.65625 195.859375 282.445312 197.976562 283.914062 C 199.054688 284.660156 199.964844 285.601562 200.558594 286.820312 C 201.15625 288.042969 201.417969 289.484375 201.285156 291.191406 C 200.804688 297.453125 195.289062 300.800781 189.539062 300.992188 L 189.539062 310.632812 L 187.78125 310.632812 L 187.78125 300.953125 C 182.472656 300.550781 177.03125 297.519531 174.703125 291.4375 L 176.347656 290.8125 C 178.601562 296.707031 184.214844 299.386719 189.425781 299.234375 C 194.671875 299.082031 199.144531 296.117188 199.53125 291.058594 C 199.640625 289.609375 199.417969 288.488281 198.980469 287.59375 C 198.542969 286.699219 197.863281 285.972656 196.976562 285.359375 C 195.160156 284.097656 192.589844 283.375 189.753906 282.636719 C 189.570312 282.59375 189.390625 282.542969 189.210938 282.496094 C 186.597656 281.820312 183.824219 281.105469 181.585938 279.867188 C 179.132812 278.511719 177.242188 276.488281 176.828125 273.195312 C 176.308594 269.074219 177.585938 265.804688 179.894531 263.617188 C 181.96875 261.644531 184.816406 260.601562 187.78125 260.539062 Z M 187.78125 260.539062 " fill-opacity="1" fill-rule="evenodd"/><path fill="#ffffff" d="M 227.71875 107.824219 C 227.71875 146.183594 196.617188 177.28125 158.257812 177.28125 C 119.898438 177.28125 88.800781 146.183594 88.800781 107.824219 C 88.800781 69.460938 119.898438 38.367188 158.257812 38.367188 C 196.617188 38.367188 227.71875 69.460938 227.71875 107.824219 Z M 227.71875 107.824219 " fill-opacity="1" fill-rule="nonzero"/><g clip-path="url(#4b4526a8af)"><path fill="#2f2f2f" d="M 158.257812 39.246094 C 120.382812 39.246094 89.679688 69.949219 89.679688 107.824219 C 89.679688 145.699219 120.382812 176.402344 158.257812 176.402344 C 196.132812 176.402344 226.835938 145.699219 226.835938 107.824219 C 226.835938 69.949219 196.132812 39.246094 158.257812 39.246094 Z M 87.921875 107.824219 C 87.921875 68.976562 119.414062 37.484375 158.257812 37.484375 C 197.105469 37.484375 228.597656 68.976562 228.597656 107.824219 C 228.597656 146.667969 197.105469 178.160156 158.257812 178.160156 C 119.414062 178.160156 87.921875 146.667969 87.921875 107.824219 Z M 87.921875 107.824219 " fill-opacity="1" fill-rule="evenodd"/></g><path fill="#2f2f2f" d="M 158.257812 55.398438 C 129.304688 55.398438 105.832031 78.871094 105.832031 107.824219 C 105.832031 136.777344 129.304688 160.25 158.257812 160.25 C 187.210938 160.25 210.683594 136.777344 210.683594 107.824219 C 210.683594 78.871094 187.210938 55.398438 158.257812 55.398438 Z M 104.074219 107.824219 C 104.074219 77.898438 128.332031 53.640625 158.257812 53.640625 C 188.183594 53.640625 212.441406 77.898438 212.441406 107.824219 C 212.441406 137.75 188.183594 162.007812 158.257812 162.007812 C 128.332031 162.007812 104.074219 137.75 104.074219 107.824219 Z M 104.074219 107.824219 " fill-opacity="1" fill-rule="evenodd"/><path fill="#2f2f2f" d="M 157.5625 80.960938 L 157.5625 68.148438 L 159.320312 68.148438 L 159.320312 81.039062 C 165.023438 81.585938 170.828125 85.058594 173.878906 91.84375 L 172.273438 92.566406 C 169.355469 86.078125 163.738281 82.980469 158.402344 82.734375 C 154.757812 82.570312 151.285156 83.730469 148.878906 86.015625 C 146.492188 88.277344 145.082031 91.710938 145.65625 96.269531 C 146.078125 99.589844 147.925781 101.632812 150.582031 103.101562 C 153.140625 104.515625 156.367188 105.351562 159.691406 106.214844 C 159.894531 106.265625 160.097656 106.320312 160.296875 106.371094 C 163.761719 107.273438 167.320312 108.246094 169.925781 110.046875 C 171.246094 110.964844 172.347656 112.109375 173.070312 113.589844 C 173.796875 115.070312 174.113281 116.828125 173.953125 118.921875 C 173.363281 126.648438 166.503906 130.769531 159.320312 130.9375 L 159.320312 143.160156 L 157.5625 143.160156 L 157.5625 130.898438 C 150.957031 130.464844 144.144531 126.730469 141.253906 119.171875 L 142.898438 118.542969 C 145.609375 125.636719 152.164062 129.035156 158.460938 129.179688 C 165.441406 129.335938 171.683594 125.542969 172.199219 118.789062 C 172.339844 116.949219 172.058594 115.515625 171.492188 114.363281 C 170.929688 113.207031 170.054688 112.277344 168.921875 111.492188 C 166.625 109.902344 163.382812 108.992188 159.855469 108.074219 C 159.632812 108.015625 159.410156 107.957031 159.183594 107.898438 C 155.925781 107.058594 152.492188 106.167969 149.730469 104.640625 C 146.71875 102.976562 144.417969 100.507812 143.910156 96.488281 C 143.273438 91.421875 144.84375 87.417969 147.667969 84.738281 C 150.261719 82.28125 153.839844 80.996094 157.5625 80.960938 Z M 157.5625 80.960938 " fill-opacity="1" fill-rule="evenodd"/><path fill="#ffffff" d="M 39.34375 594.03125 C -0.0117188 594.03125 19.9375 552.238281 39.34375 564.179688 C 37.1875 537.042969 86.300781 522.289062 94.878906 558.753906 C 97.105469 568.21875 89.222656 581.75 78.816406 589.707031 C 74.445312 593.046875 68.847656 594.03125 63.34375 594.03125 Z M 39.34375 594.03125 " fill-opacity="1" fill-rule="nonzero"/><path fill="#2f2f2f" d="M 63.253906 538.480469 C 50.425781 540.953125 39.191406 551.152344 40.222656 564.109375 L 40.359375 565.835938 L 38.882812 564.929688 C 34.328125 562.125 29.78125 562.476562 26.050781 564.574219 C 22.285156 566.6875 19.34375 570.59375 18.152344 574.863281 C 16.96875 579.117188 17.546875 583.636719 20.664062 587.097656 C 23.796875 590.574219 29.640625 593.152344 39.34375 593.152344 L 63.34375 593.152344 C 68.765625 593.152344 74.132812 592.179688 78.285156 589.007812 C 83.386719 585.105469 87.878906 579.828125 90.808594 574.378906 C 93.753906 568.90625 95.066406 563.386719 94.023438 558.953125 C 91.925781 550.046875 87.382812 544.347656 81.839844 541.164062 C 76.28125 537.96875 69.625 537.25 63.253906 538.480469 Z M 82.714844 539.636719 C 88.726562 543.09375 93.539062 549.226562 95.734375 558.550781 C 96.917969 563.582031 95.398438 569.5625 92.359375 575.210938 C 89.304688 580.882812 84.652344 586.351562 79.351562 590.402344 C 74.757812 593.917969 68.929688 594.910156 63.34375 594.910156 L 39.34375 594.910156 C 29.367188 594.910156 22.949219 592.261719 19.359375 588.273438 C 15.753906 584.273438 15.152344 579.09375 16.460938 574.390625 C 17.765625 569.703125 20.988281 565.402344 25.191406 563.039062 C 29.042969 560.875 33.714844 560.351562 38.398438 562.652344 C 38.269531 549.265625 50.089844 539.226562 62.917969 536.753906 C 69.625 535.457031 76.722656 536.195312 82.714844 539.636719 Z M 82.714844 539.636719 " fill-opacity="1" fill-rule="evenodd"/><path fill="#ffffff" d="M 426.417969 73.535156 L 604.664062 73.535156 L 604.664062 163.839844 L 611.054688 205.417969 L 579.675781 188.46875 L 426.417969 188.46875 Z M 426.417969 73.535156 " fill-opacity="1" fill-rule="nonzero"/><path fill="#2f2f2f" d="M 425.539062 72.65625 L 605.542969 72.65625 L 605.542969 163.773438 L 612.191406 207.03125 L 579.453125 189.351562 L 425.539062 189.351562 Z M 427.300781 74.414062 L 427.300781 187.589844 L 579.898438 187.589844 L 609.917969 203.800781 L 603.785156 163.910156 L 603.785156 74.414062 Z M 427.300781 74.414062 " fill-opacity="1" fill-rule="evenodd"/><path fill="#ffde59" d="M 475.65625 133.320312 C 475.65625 143.03125 467.785156 150.90625 458.070312 150.90625 C 448.359375 150.90625 440.488281 143.03125 440.488281 133.320312 C 440.488281 123.609375 448.359375 115.738281 458.070312 115.738281 C 467.785156 115.738281 475.65625 123.609375 475.65625 133.320312 Z M 475.65625 133.320312 " fill-opacity="1" fill-rule="nonzero"/><path fill="#2f2f2f" d="M 458.070312 116.617188 C 448.84375 116.617188 441.367188 124.09375 441.367188 133.320312 C 441.367188 142.546875 448.84375 150.027344 458.070312 150.027344 C 467.296875 150.027344 474.777344 142.546875 474.777344 133.320312 C 474.777344 124.09375 467.296875 116.617188 458.070312 116.617188 Z M 439.609375 133.320312 C 439.609375 123.125 447.875 114.855469 458.070312 114.855469 C 468.269531 114.855469 476.535156 123.125 476.535156 133.320312 C 476.535156 143.519531 468.269531 151.785156 458.070312 151.785156 C 447.875 151.785156 439.609375 143.519531 439.609375 133.320312 Z M 439.609375 133.320312 " fill-opacity="1" fill-rule="evenodd"/><path fill="#ffde59" d="M 528.410156 133.320312 C 528.410156 143.03125 520.535156 150.90625 510.824219 150.90625 C 501.113281 150.90625 493.242188 143.03125 493.242188 133.320312 C 493.242188 123.609375 501.113281 115.738281 510.824219 115.738281 C 520.535156 115.738281 528.410156 123.609375 528.410156 133.320312 Z M 528.410156 133.320312 " fill-opacity="1" fill-rule="nonzero"/><path fill="#2f2f2f" d="M 510.824219 116.617188 C 501.597656 116.617188 494.121094 124.09375 494.121094 133.320312 C 494.121094 142.546875 501.597656 150.027344 510.824219 150.027344 C 520.050781 150.027344 527.53125 142.546875 527.53125 133.320312 C 527.53125 124.09375 520.050781 116.617188 510.824219 116.617188 Z M 492.359375 133.320312 C 492.359375 123.125 500.628906 114.855469 510.824219 114.855469 C 521.023438 114.855469 529.289062 123.125 529.289062 133.320312 C 529.289062 143.519531 521.023438 151.785156 510.824219 151.785156 C 500.628906 151.785156 492.359375 143.519531 492.359375 133.320312 Z M 492.359375 133.320312 " fill-opacity="1" fill-rule="evenodd"/><path fill="#ffde59" d="M 581.160156 133.320312 C 581.160156 143.03125 573.289062 150.90625 563.578125 150.90625 C 553.867188 150.90625 545.992188 143.03125 545.992188 133.320312 C 545.992188 123.609375 553.867188 115.738281 563.578125 115.738281 C 573.289062 115.738281 581.160156 123.609375 581.160156 133.320312 Z M 581.160156 133.320312 " fill-opacity="1" fill-rule="nonzero"/><path fill="#2f2f2f" d="M 563.578125 116.617188 C 554.351562 116.617188 546.871094 124.09375 546.871094 133.320312 C 546.871094 142.546875 554.351562 150.027344 563.578125 150.027344 C 572.804688 150.027344 580.28125 142.546875 580.28125 133.320312 C 580.28125 124.09375 572.804688 116.617188 563.578125 116.617188 Z M 545.113281 133.320312 C 545.113281 123.125 553.378906 114.855469 563.578125 114.855469 C 573.773438 114.855469 582.042969 123.125 582.042969 133.320312 C 582.042969 143.519531 573.773438 151.785156 563.578125 151.785156 C 553.378906 151.785156 545.113281 143.519531 545.113281 133.320312 Z M 545.113281 133.320312 " fill-opacity="1" fill-rule="evenodd"/><path fill="#2f2f2f" d="M 683.402344 276.90625 C 685.164062 248.769531 646.65625 248.828125 636.660156 259.488281 C 621.164062 260.429688 607.785156 277.785156 615.703125 298.886719 C 620.320312 311.195312 605.664062 324.988281 608.300781 350.488281 C 624.175781 344.714844 641.214844 346.078125 655.777344 346.894531 L 659.296875 342.574219 L 664.691406 350.488281 C 670.316406 348.375 686.960938 349.609375 694.582031 350.488281 C 702.925781 334.023438 689.589844 308.164062 683.402344 298.886719 C 677.246094 290.972656 682.957031 284.070312 683.402344 276.90625 Z M 683.402344 276.90625 " fill-opacity="1" fill-rule="nonzero"/><path fill="#ffffff" d="M 641.390625 780.421875 L 588.691406 780.421875 C 588.613281 779.386719 588.605469 778.019531 588.777344 776.496094 C 589.503906 770.007812 593.398438 761.34375 607.972656 762.757812 C 614.375 763.378906 618.804688 760.382812 621.46875 752.289062 L 641.390625 752.289062 Z M 641.390625 780.421875 " fill-opacity="1" fill-rule="nonzero"/><path fill="#2f2f2f" d="M 620.832031 751.410156 L 642.269531 751.410156 L 642.269531 781.304688 L 587.878906 781.304688 L 587.816406 780.492188 C 587.730469 779.402344 587.726562 777.980469 587.902344 776.402344 C 588.28125 773.046875 589.484375 769.027344 592.570312 766.03125 C 595.683594 763.011719 600.582031 761.160156 608.058594 761.882812 C 611.09375 762.175781 613.566406 761.609375 615.59375 760.085938 C 617.640625 758.550781 619.332031 755.964844 620.632812 752.015625 Z M 622.097656 753.167969 C 620.757812 756.996094 618.964844 759.753906 616.652344 761.496094 C 614.195312 763.339844 611.253906 763.960938 607.886719 763.632812 C 600.789062 762.945312 596.453125 764.71875 593.792969 767.296875 C 591.386719 769.632812 590.246094 772.738281 589.785156 775.617188 L 640.511719 775.617188 L 640.511719 753.167969 Z M 640.511719 777.375 L 589.578125 777.375 C 589.519531 778.167969 589.507812 778.902344 589.527344 779.542969 L 640.511719 779.542969 Z M 640.511719 777.375 " fill-opacity="1" fill-rule="evenodd"/><path fill="#ffffff" d="M 763.453125 739.691406 L 731.738281 781.777344 C 730.863281 781.21875 729.769531 780.398438 728.65625 779.347656 C 723.910156 774.859375 719.335938 766.539062 729.234375 755.746094 C 733.582031 751.007812 733.855469 745.667969 728.996094 738.667969 L 740.984375 722.757812 L 760.320312 737.328125 Z M 763.453125 739.691406 " fill-opacity="1" fill-rule="nonzero"/><path fill="#2f2f2f" d="M 727.910156 738.648438 L 740.8125 721.523438 L 764.6875 739.515625 L 731.953125 782.953125 L 731.269531 782.519531 C 730.34375 781.929688 729.207031 781.074219 728.050781 779.984375 C 725.597656 777.667969 723.113281 774.289062 722.582031 770.019531 C 722.042969 765.710938 723.507812 760.6875 728.585938 755.152344 C 730.648438 752.902344 731.683594 750.585938 731.6875 748.054688 C 731.691406 745.496094 730.644531 742.585938 728.273438 739.167969 Z M 730.078125 738.695312 C 732.324219 742.070312 733.449219 745.160156 733.449219 748.054688 C 733.441406 751.128906 732.167969 753.851562 729.882812 756.34375 C 725.0625 761.597656 723.867188 766.128906 724.328125 769.800781 C 724.742188 773.132812 726.539062 775.910156 728.558594 778.011719 L 759.089844 737.5 L 741.15625 723.988281 Z M 760.492188 738.558594 L 729.839844 779.234375 C 730.4375 779.761719 731.015625 780.210938 731.539062 780.582031 L 762.222656 739.863281 Z M 760.492188 738.558594 " fill-opacity="1" fill-rule="evenodd"/><path fill="#ffffff" d="M 650.1875 754.046875 L 611.5 754.046875 L 604.550781 486.765625 L 702.71875 486.765625 C 714.367188 505.230469 706.109375 523.316406 695.90625 620.03125 L 753.054688 722.394531 L 726.675781 746.132812 L 658.707031 635.195312 C 655.839844 630.515625 653.832031 625.40625 652.679688 620.105469 Z M 650.1875 754.046875 " fill-opacity="1" fill-rule="nonzero"/><path fill="#2f2f2f" d="M 603.648438 485.886719 L 703.199219 485.886719 L 703.460938 486.296875 C 709.449219 495.792969 710.269531 505.1875 708.382812 524.144531 C 707.605469 531.914062 706.371094 541.328125 704.835938 553.054688 C 704.5 555.628906 704.148438 558.3125 703.78125 561.117188 C 701.765625 576.640625 699.347656 595.808594 696.808594 619.847656 L 754.160156 722.582031 L 726.480469 747.496094 L 657.957031 635.65625 C 656.097656 632.621094 654.597656 629.417969 653.449219 626.097656 L 651.046875 754.925781 L 610.640625 754.925781 Z M 651.796875 620.191406 C 650.730469 615.226562 650.398438 610.097656 650.800781 604.984375 C 652.855469 578.609375 654.371094 543.023438 654.5625 537.488281 L 635.816406 530.671875 L 636.417969 529.019531 L 656.351562 536.269531 L 656.339844 536.898438 C 656.289062 539.226562 654.722656 577.289062 652.550781 605.117188 C 652.164062 610.101562 652.492188 615.09375 653.539062 619.917969 C 654.667969 625.128906 656.640625 630.144531 659.457031 634.734375 L 726.871094 744.773438 L 751.941406 722.210938 L 695 620.214844 L 695.027344 619.941406 C 697.582031 595.75 700.011719 576.480469 702.039062 560.890625 C 702.40625 558.082031 702.757812 555.390625 703.09375 552.8125 C 704.628906 541.089844 705.859375 531.710938 706.632812 523.96875 C 708.484375 505.371094 707.660156 496.476562 702.226562 487.644531 L 605.449219 487.644531 L 612.355469 753.167969 L 649.320312 753.167969 Z M 651.796875 620.191406 " fill-opacity="1" fill-rule="evenodd"/><path fill="#ffffff" d="M 631.246094 343.785156 C 636.46875 364.226562 652.277344 351.148438 659.53125 342.058594 C 659.53125 340.1875 658.269531 328.953125 657.960938 319.753906 C 661.019531 316.972656 663.226562 313.476562 664.640625 310.34375 C 663.574219 306.148438 665.085938 297.976562 665.972656 294.414062 C 662.8125 292.007812 654.027344 294.59375 647.386719 290.972656 C 637.714844 285.699219 638.535156 274.957031 635.957031 273.386719 C 632.5625 277.042969 627.640625 281.710938 626.042969 283.058594 C 624.359375 287.480469 623.265625 292.300781 623.265625 296.800781 C 624.121094 306.011719 626.847656 315.871094 633.289062 321.054688 C 633.050781 328.183594 631.894531 339.398438 631.246094 343.785156 Z M 631.246094 343.785156 " fill-opacity="1" fill-rule="nonzero"/><path fill="#2f2f2f" d="M 635.800781 272.265625 L 635.316406 272.789062 C 631.9375 276.421875 627.042969 281.0625 625.476562 282.386719 L 625.300781 282.535156 L 625.222656 282.746094 C 623.511719 287.238281 622.382812 292.167969 622.382812 296.800781 L 622.382812 296.839844 L 622.386719 296.882812 C 623.234375 305.972656 625.902344 315.96875 632.398438 321.457031 C 632.125 328.5625 631.007812 339.386719 630.375 343.65625 L 630.351562 343.832031 L 630.394531 344.003906 C 631.726562 349.214844 633.777344 352.476562 636.371094 354.15625 C 638.996094 355.851562 641.988281 355.808594 644.90625 354.828125 C 647.808594 353.855469 650.730469 351.929688 653.355469 349.707031 C 655.988281 347.480469 658.375 344.917969 660.21875 342.605469 L 660.410156 342.363281 L 660.410156 342.058594 C 660.410156 341.332031 660.238281 339.320312 660.003906 336.652344 C 659.921875 335.703125 659.832031 334.667969 659.738281 333.578125 C 659.394531 329.511719 659.015625 324.597656 658.851562 320.125 C 661.863281 317.292969 664.039062 313.816406 665.445312 310.707031 L 665.570312 310.429688 L 665.496094 310.128906 C 665.003906 308.203125 665.09375 305.25 665.449219 302.246094 C 665.796875 299.273438 666.390625 296.375 666.828125 294.625 L 666.96875 294.0625 L 666.503906 293.710938 C 665.515625 292.960938 664.171875 292.652344 662.765625 292.496094 C 661.625 292.367188 660.328125 292.332031 658.988281 292.296875 C 658.664062 292.289062 658.339844 292.28125 658.011719 292.269531 C 654.585938 292.164062 650.925781 291.898438 647.808594 290.199219 C 643.234375 287.703125 641.125 283.917969 639.835938 280.480469 C 639.414062 279.351562 639.09375 278.308594 638.796875 277.339844 C 638.632812 276.796875 638.472656 276.277344 638.304688 275.777344 C 638.085938 275.109375 637.847656 274.484375 637.570312 273.960938 C 637.292969 273.445312 636.929688 272.949219 636.414062 272.636719 Z M 657.152344 321.582031 C 657.335938 325.703125 657.679688 330.070312 657.984375 333.726562 C 658.085938 334.886719 658.179688 335.96875 658.265625 336.949219 C 658.460938 339.222656 658.609375 340.933594 658.644531 341.757812 C 656.890625 343.925781 654.660156 346.300781 652.21875 348.367188 C 649.675781 350.515625 646.957031 352.285156 644.347656 353.160156 C 641.753906 354.035156 639.359375 353.992188 637.328125 352.679688 C 635.285156 351.359375 633.421875 348.640625 632.140625 343.738281 C 632.75 339.542969 633.765625 329.773438 634.101562 322.734375 C 635.59375 323.714844 637.253906 324.472656 639.097656 324.96875 C 646.6875 326.992188 652.683594 325.039062 657.152344 321.582031 Z M 638.191406 281.097656 C 639.554688 284.742188 641.875 288.964844 646.96875 291.746094 C 650.488281 293.667969 654.542969 293.921875 657.957031 294.027344 C 658.304688 294.039062 658.648438 294.046875 658.980469 294.058594 C 660.308594 294.09375 661.511719 294.125 662.570312 294.242188 C 663.597656 294.359375 664.390625 294.542969 664.96875 294.824219 C 664.542969 296.65625 664.023438 299.3125 663.703125 302.039062 C 663.363281 304.925781 663.226562 308.007812 663.714844 310.253906 C 662.335938 313.234375 660.230469 316.5 657.367188 319.101562 C 653.160156 322.929688 647.304688 325.335938 639.550781 323.265625 C 637.371094 322.6875 635.480469 321.6875 633.839844 320.371094 C 627.703125 315.433594 625 305.921875 624.144531 296.761719 C 624.148438 292.476562 625.179688 287.859375 626.785156 283.582031 C 628.457031 282.136719 632.710938 278.101562 635.953125 274.675781 C 635.976562 274.714844 635.996094 274.75 636.019531 274.792969 C 636.226562 275.179688 636.425781 275.691406 636.636719 276.332031 C 636.78125 276.753906 636.925781 277.238281 637.089844 277.765625 C 637.398438 278.769531 637.753906 279.929688 638.191406 281.097656 Z M 638.191406 281.097656 " fill-opacity="1" fill-rule="evenodd"/><path fill="#ffffff" d="M 713.019531 372.644531 C 701.335938 365.023438 690.4375 332.324219 680.957031 303.886719 C 674.804688 298.613281 680.078125 286.304688 680.957031 282.789062 C 681.660156 279.972656 681.25 274.582031 680.957031 272.238281 C 682.132812 274.875 684.476562 280.5 684.476562 281.910156 C 684.476562 283.316406 686.234375 291.285156 687.113281 295.097656 L 724.917969 348.730469 C 742.503906 373.347656 730.195312 375.984375 717.007812 374.226562 C 715.667969 374.046875 714.335938 373.507812 713.019531 372.644531 Z M 713.019531 372.644531 " fill-opacity="1" fill-rule="nonzero"/><path fill="#2f2f2f" d="M 631.859375 327.265625 L 660.738281 327.636719 L 660.738281 340.027344 C 670.304688 341.089844 686.40625 343.3125 697 345.964844 L 696.574219 347.671875 C 685.808594 344.972656 669.199219 342.714844 659.765625 341.691406 L 658.980469 341.605469 L 658.980469 329.375 L 633.351562 329.042969 L 630.726562 345.140625 L 630.054688 345.207031 C 628.246094 345.386719 625.839844 346.554688 623.3125 348.125 C 621.003906 349.558594 618.714844 351.253906 616.863281 352.625 C 616.710938 352.734375 616.5625 352.84375 616.421875 352.953125 C 606.542969 360.25 602.492188 369.652344 602.597656 380.261719 C 602.707031 390.925781 607.023438 402.863281 614.023438 415.113281 L 614.167969 415.371094 L 604.59375 487.644531 L 705.207031 487.644531 L 688.855469 442.035156 L 694.199219 390.390625 L 712.703125 379.816406 C 712.710938 379.789062 712.714844 379.757812 712.71875 379.726562 C 712.765625 379.417969 712.816406 378.941406 712.832031 378.304688 C 712.867188 377.039062 712.753906 375.136719 712.15625 372.675781 L 713.863281 372.261719 C 714.5 374.875 714.628906 376.933594 714.589844 378.351562 C 714.574219 379.058594 714.515625 379.609375 714.457031 379.988281 C 714.429688 380.179688 714.402344 380.324219 714.378906 380.429688 C 714.367188 380.480469 714.359375 380.519531 714.351562 380.550781 L 714.34375 380.589844 L 714.339844 380.601562 L 714.339844 380.605469 C 714.339844 380.605469 714.339844 380.605469 713.488281 380.378906 L 714.339844 380.605469 L 714.242188 380.960938 L 695.855469 391.472656 L 690.648438 441.816406 L 707.707031 489.402344 L 602.585938 489.402344 L 612.347656 415.726562 C 605.363281 403.445312 600.953125 391.296875 600.839844 380.28125 C 600.726562 369.128906 605.027344 359.1875 615.375 351.539062 C 615.519531 351.429688 615.667969 351.320312 615.824219 351.207031 C 617.671875 349.839844 620.011719 348.105469 622.382812 346.628906 C 624.667969 345.210938 627.09375 343.953125 629.203125 343.558594 Z M 631.859375 327.265625 " fill-opacity="1" fill-rule="evenodd"/><path fill="#ffde59" d="M 659.855469 340.816406 L 659.800781 328.859375 L 632.542969 328.507812 L 630.535156 340.816406 L 629.960938 344.332031 C 625.902344 344.738281 619.730469 349.410156 615.894531 352.246094 C 595.671875 367.191406 599.1875 390.929688 613.253906 415.550781 L 603.585938 488.523438 L 706.453125 488.523438 L 689.75 441.925781 L 695.023438 390.929688 L 713.484375 380.378906 C 713.484375 380.378906 714.242188 377.546875 713.003906 372.46875 C 704.882812 366.839844 698.804688 353.023438 696.78125 346.820312 C 685.957031 344.105469 669.296875 341.84375 659.855469 340.816406 Z M 659.855469 340.816406 " fill-opacity="1" fill-rule="nonzero"/><path fill="#2f2f2f" d="M 680.085938 272.347656 L 681.761719 271.878906 C 682.355469 273.207031 683.242188 275.289062 683.980469 277.21875 C 684.347656 278.183594 684.6875 279.121094 684.933594 279.914062 C 685.167969 280.664062 685.355469 281.402344 685.355469 281.910156 C 685.355469 282.167969 685.449219 282.84375 685.632812 283.871094 C 685.808594 284.867188 686.054688 286.105469 686.328125 287.421875 C 686.859375 289.984375 687.496094 292.828125 687.933594 294.730469 L 725.636719 348.21875 C 730.058594 354.40625 732.648438 359.277344 733.800781 363.089844 C 734.953125 366.90625 734.707031 369.808594 733.21875 371.882812 C 731.75 373.925781 729.234375 374.917969 726.40625 375.316406 C 723.554688 375.71875 720.222656 375.542969 716.890625 375.097656 C 716.011719 374.980469 715.144531 374.722656 714.289062 374.34375 C 714.558594 375.988281 714.617188 377.332031 714.589844 378.351562 C 714.574219 379.058594 714.515625 379.609375 714.457031 379.988281 C 714.429688 380.179688 714.402344 380.324219 714.378906 380.429688 C 714.367188 380.480469 714.359375 380.519531 714.351562 380.550781 L 714.34375 380.589844 L 714.339844 380.597656 L 714.339844 380.605469 C 714.339844 380.605469 714.339844 380.605469 713.488281 380.378906 L 714.339844 380.605469 L 714.242188 380.960938 L 695.855469 391.472656 L 690.648438 441.816406 L 707.707031 489.402344 L 602.585938 489.402344 L 612.347656 415.726562 C 605.363281 403.445312 600.953125 391.296875 600.839844 380.277344 C 600.726562 369.128906 605.027344 359.1875 615.375 351.539062 C 615.519531 351.429688 615.667969 351.320312 615.824219 351.207031 C 617.671875 349.839844 620.011719 348.105469 622.382812 346.628906 C 624.667969 345.210938 627.09375 343.953125 629.203125 343.558594 L 631.734375 328.015625 L 633.472656 328.296875 L 630.726562 345.140625 L 630.054688 345.207031 C 628.246094 345.386719 625.839844 346.554688 623.3125 348.125 C 621.003906 349.558594 618.714844 351.253906 616.863281 352.625 C 616.710938 352.734375 616.5625 352.84375 616.421875 352.953125 C 606.542969 360.25 602.492188 369.652344 602.597656 380.261719 C 602.707031 390.925781 607.023438 402.863281 614.023438 415.113281 L 614.167969 415.371094 L 604.59375 487.644531 L 705.207031 487.644531 L 688.855469 442.035156 L 694.199219 390.390625 L 712.703125 379.816406 C 712.710938 379.789062 712.714844 379.757812 712.71875 379.726562 C 712.765625 379.417969 712.816406 378.941406 712.832031 378.304688 C 712.863281 377.128906 712.769531 375.414062 712.277344 373.207031 C 710.308594 371.863281 708.417969 369.886719 706.59375 367.476562 C 703.363281 363.195312 700.226562 357.355469 697.195312 350.628906 C 696.730469 349.601562 696.269531 348.550781 695.808594 347.484375 C 685.039062 344.867188 668.980469 342.691406 659.765625 341.691406 L 658.980469 341.605469 L 658.980469 328.507812 L 660.738281 328.507812 L 660.738281 340.027344 C 669.710938 341.023438 684.425781 343.039062 694.957031 345.472656 C 689.746094 333.007812 684.796875 318.183594 680.203125 304.390625 C 676.929688 301.417969 676.800781 296.679688 677.457031 292.542969 C 677.792969 290.394531 678.355469 288.320312 678.882812 286.570312 C 679.105469 285.828125 679.320312 285.160156 679.507812 284.570312 C 679.769531 283.742188 679.980469 283.074219 680.105469 282.574219 C 680.429688 281.289062 680.507812 279.34375 680.457031 277.359375 C 680.402344 275.398438 680.230469 273.492188 680.085938 272.347656 Z M 682.21875 277.539062 C 682.257812 279.476562 682.183594 281.527344 681.8125 283 C 681.675781 283.546875 681.433594 284.308594 681.152344 285.195312 C 680.96875 285.78125 680.765625 286.417969 680.566406 287.078125 C 680.050781 288.796875 679.511719 290.785156 679.191406 292.816406 C 678.539062 296.953125 678.835938 300.90625 681.53125 303.21875 L 681.71875 303.378906 L 681.796875 303.609375 C 687.074219 319.449219 692.773438 336.546875 698.796875 349.90625 C 701.808594 356.585938 704.882812 362.289062 707.996094 366.414062 C 711.140625 370.578125 714.195312 372.964844 717.125 373.355469 C 720.386719 373.789062 723.539062 373.941406 726.160156 373.574219 C 728.796875 373.203125 730.730469 372.328125 731.789062 370.855469 C 732.832031 369.410156 733.1875 367.148438 732.117188 363.601562 C 731.042969 360.050781 728.578125 355.363281 724.207031 349.242188 L 724.203125 349.234375 L 686.296875 295.460938 L 686.257812 295.292969 C 685.820312 293.386719 685.15625 290.433594 684.605469 287.78125 C 684.332031 286.453125 684.082031 285.195312 683.898438 284.179688 C 683.726562 283.199219 683.597656 282.351562 683.597656 281.910156 C 683.597656 281.710938 683.496094 281.21875 683.253906 280.433594 C 683.023438 279.695312 682.699219 278.796875 682.335938 277.847656 C 682.296875 277.746094 682.257812 277.640625 682.21875 277.539062 Z M 682.21875 277.539062 " fill-opacity="1" fill-rule="evenodd"/><path fill="#fff493" d="M 487.964844 332.78125 L 598.652344 288.0625 L 665.28125 452.972656 L 554.59375 497.691406 Z M 487.964844 332.78125 " fill-opacity="1" fill-rule="nonzero"/><path fill="#2f2f2f" d="M 597.679688 290.351562 L 490.253906 333.753906 L 555.5625 495.40625 L 662.992188 452 Z M 487.964844 332.78125 L 554.59375 497.691406 L 665.28125 452.972656 L 598.652344 288.0625 Z M 487.964844 332.78125 " fill-opacity="1" fill-rule="evenodd"/><path fill="#ffffff" d="M 506.816406 342.410156 L 590.964844 308.414062 L 603.738281 340.035156 L 519.59375 374.035156 Z M 506.816406 342.410156 " fill-opacity="1" fill-rule="nonzero"/><path fill="#2f2f2f" d="M 589.992188 310.703125 L 509.105469 343.382812 L 520.566406 371.746094 L 601.453125 339.066406 Z M 506.816406 342.410156 L 519.59375 374.035156 L 603.738281 340.035156 L 590.964844 308.414062 Z M 506.816406 342.410156 " fill-opacity="1" fill-rule="evenodd"/><path fill="#ffffff" d="M 581.605469 354.292969 L 606.261719 344.332031 L 643.332031 436.089844 L 618.679688 446.050781 Z M 581.605469 354.292969 " fill-opacity="1" fill-rule="nonzero"/><path fill="#2f2f2f" d="M 605.289062 346.621094 L 583.894531 355.265625 L 619.648438 443.761719 L 641.046875 435.117188 Z M 581.605469 354.292969 L 618.679688 446.050781 L 643.332031 436.089844 L 606.261719 344.332031 Z M 581.605469 354.292969 " fill-opacity="1" fill-rule="evenodd"/><path fill="#ffffff" d="M 521.816406 377.152344 L 546.476562 367.191406 L 555.554688 389.664062 L 530.898438 399.625 Z M 521.816406 377.152344 " fill-opacity="1" fill-rule="nonzero"/><path fill="#2f2f2f" d="M 545.503906 369.480469 L 524.109375 378.125 L 531.871094 397.335938 L 553.265625 388.691406 Z M 521.816406 377.152344 L 530.898438 399.625 L 555.554688 389.664062 L 546.476562 367.191406 Z M 521.816406 377.152344 " fill-opacity="1" fill-rule="evenodd"/><path fill="#ffffff" d="M 551.710938 364.84375 L 576.367188 354.882812 L 585.445312 377.355469 L 560.789062 387.316406 Z M 551.710938 364.84375 " fill-opacity="1" fill-rule="nonzero"/><path fill="#2f2f2f" d="M 575.394531 357.171875 L 554 365.816406 L 561.761719 385.027344 L 583.15625 376.382812 Z M 551.710938 364.84375 L 560.789062 387.316406 L 585.445312 377.355469 L 576.367188 354.882812 Z M 551.710938 364.84375 " fill-opacity="1" fill-rule="evenodd"/><path fill="#ffffff" d="M 532.367188 403.53125 L 557.027344 393.570312 L 566.105469 416.039062 L 541.449219 426 Z M 532.367188 403.53125 " fill-opacity="1" fill-rule="nonzero"/><path fill="#2f2f2f" d="M 556.054688 395.859375 L 534.660156 404.503906 L 542.421875 423.710938 L 563.816406 415.066406 Z M 532.367188 403.53125 L 541.449219 426 L 566.105469 416.039062 L 557.027344 393.570312 Z M 532.367188 403.53125 " fill-opacity="1" fill-rule="evenodd"/><path fill="#ffffff" d="M 562.261719 391.222656 L 586.917969 381.257812 L 595.996094 403.730469 L 571.339844 413.691406 Z M 562.261719 391.222656 " fill-opacity="1" fill-rule="nonzero"/><path fill="#2f2f2f" d="M 585.945312 383.550781 L 564.550781 392.195312 L 572.3125 411.402344 L 593.707031 402.757812 Z M 562.261719 391.222656 L 571.339844 413.691406 L 595.996094 403.730469 L 586.917969 381.257812 Z M 562.261719 391.222656 " fill-opacity="1" fill-rule="evenodd"/><path fill="#ffffff" d="M 542.917969 429.90625 L 567.578125 419.945312 L 576.65625 442.417969 L 552 452.378906 Z M 542.917969 429.90625 " fill-opacity="1" fill-rule="nonzero"/><path fill="#2f2f2f" d="M 566.605469 422.234375 L 545.207031 430.878906 L 552.96875 450.089844 L 574.367188 441.445312 Z M 542.917969 429.90625 L 552 452.378906 L 576.65625 442.417969 L 567.578125 419.945312 Z M 542.917969 429.90625 " fill-opacity="1" fill-rule="evenodd"/><path fill="#ffffff" d="M 553.46875 456.28125 L 578.125 446.320312 L 587.207031 468.792969 L 562.550781 478.753906 Z M 553.46875 456.28125 " fill-opacity="1" fill-rule="nonzero"/><path fill="#2f2f2f" d="M 577.15625 448.609375 L 555.757812 457.253906 L 563.519531 476.464844 L 584.917969 467.820312 Z M 553.46875 456.28125 L 562.550781 478.753906 L 587.207031 468.792969 L 578.125 446.320312 Z M 553.46875 456.28125 " fill-opacity="1" fill-rule="evenodd"/><path fill="#ffffff" d="M 572.8125 417.597656 L 597.46875 407.636719 L 606.546875 430.105469 L 581.890625 440.070312 Z M 572.8125 417.597656 " fill-opacity="1" fill-rule="nonzero"/><path fill="#2f2f2f" d="M 596.496094 409.925781 L 575.101562 418.570312 L 582.863281 437.777344 L 604.257812 429.132812 Z M 572.8125 417.597656 L 581.890625 440.070312 L 606.546875 430.105469 L 597.46875 407.636719 Z M 572.8125 417.597656 " fill-opacity="1" fill-rule="evenodd"/><path fill="#ffffff" d="M 583.363281 443.972656 L 608.019531 434.011719 L 617.097656 456.484375 L 592.441406 466.445312 Z M 583.363281 443.972656 " fill-opacity="1" fill-rule="nonzero"/><path fill="#2f2f2f" d="M 607.046875 436.300781 L 585.652344 444.945312 L 593.414062 464.15625 L 614.808594 455.511719 Z M 583.363281 443.972656 L 592.441406 466.445312 L 617.097656 456.484375 L 608.019531 434.011719 Z M 583.363281 443.972656 " fill-opacity="1" fill-rule="evenodd"/><path fill="#ffffff" d="M 534.125 408.515625 C 532.015625 407.8125 525.628906 412.910156 522.695312 415.550781 L 519.179688 407.34375 C 517.128906 419.75 516.363281 442.101562 529.730469 432.253906 C 536.761719 427.859375 536.761719 409.394531 534.125 408.515625 Z M 534.125 408.515625 " fill-opacity="1" fill-rule="nonzero"/><path fill="#2f2f2f" d="M 518.804688 404.234375 L 523.027344 414.085938 C 524.472656 412.839844 526.378906 411.308594 528.222656 410.050781 C 529.355469 409.28125 530.492188 408.597656 531.503906 408.144531 C 532.007812 407.917969 532.507812 407.738281 532.976562 407.648438 C 533.433594 407.554688 533.9375 407.523438 534.402344 407.683594 C 534.789062 407.808594 535.074219 408.070312 535.28125 408.339844 C 535.492188 408.609375 535.660156 408.9375 535.800781 409.28125 C 536.074219 409.972656 536.277344 410.859375 536.410156 411.859375 C 536.683594 413.863281 536.707031 416.464844 536.429688 419.15625 C 536.148438 421.851562 535.558594 424.683594 534.570312 427.140625 C 533.59375 429.574219 532.191406 431.738281 530.226562 432.980469 C 526.824219 435.480469 523.988281 436.183594 521.753906 435.042969 C 519.59375 433.945312 518.429688 431.316406 517.8125 428.324219 C 516.554688 422.25 517.285156 413.425781 518.3125 407.203125 Z M 519.597656 410.550781 C 518.859375 416.28125 518.53125 423.125 519.535156 427.96875 C 520.136719 430.882812 521.164062 432.769531 522.554688 433.476562 C 523.863281 434.144531 525.9375 433.957031 529.207031 431.546875 L 529.261719 431.507812 C 530.796875 430.550781 532.023438 428.769531 532.9375 426.488281 C 533.847656 424.21875 534.410156 421.558594 534.679688 418.972656 C 534.949219 416.394531 534.917969 413.9375 534.667969 412.09375 C 534.542969 411.171875 534.367188 410.4375 534.164062 409.933594 C 534.066406 409.679688 533.96875 409.515625 533.894531 409.417969 C 533.863281 409.375 533.839844 409.355469 533.828125 409.34375 C 533.753906 409.324219 533.597656 409.3125 533.324219 409.371094 C 533.027344 409.429688 532.65625 409.554688 532.21875 409.75 C 531.347656 410.140625 530.308594 410.761719 529.210938 411.507812 C 527.027344 412.992188 524.730469 414.902344 523.28125 416.203125 L 522.371094 417.023438 Z M 519.597656 410.550781 " fill-opacity="1" fill-rule="evenodd"/><path fill="#ffffff" d="M 128.816406 760.101562 C 124.800781 750.746094 128.511719 746.222656 130.871094 745.128906 L 114.464844 718.878906 L 95.730469 730.589844 L 92.316406 732.71875 L 124.097656 783.578125 C 125.285156 782.691406 126.328125 781.839844 127.234375 781.003906 C 133.445312 775.269531 133.203125 770.300781 128.816406 760.101562 Z M 128.816406 760.101562 " fill-opacity="1" fill-rule="nonzero"/><path fill="#2f2f2f" d="M 114.746094 717.667969 L 132.140625 745.507812 L 131.238281 745.925781 C 130.292969 746.363281 128.945312 747.5625 128.292969 749.765625 C 127.644531 751.957031 127.671875 755.214844 129.625 759.75 C 131.820312 764.859375 133.054688 768.816406 132.875 772.273438 C 132.691406 775.808594 131.042969 778.683594 127.828125 781.652344 C 126.894531 782.511719 125.828125 783.382812 124.625 784.285156 L 123.855469 784.855469 L 91.105469 732.441406 Z M 114.1875 720.089844 L 93.527344 733 L 124.332031 782.292969 C 125.1875 781.628906 125.953125 780.988281 126.636719 780.359375 C 129.636719 777.589844 130.96875 775.113281 131.121094 772.183594 C 131.277344 769.167969 130.199219 765.539062 128.007812 760.445312 C 125.941406 755.632812 125.8125 751.949219 126.605469 749.269531 C 127.242188 747.121094 128.457031 745.660156 129.644531 744.828125 Z M 114.1875 720.089844 " fill-opacity="1" fill-rule="evenodd"/><path fill="#ffde59" d="M 160.898438 758.441406 L 116.054688 758.441406 L 118.640625 726.222656 L 111.660156 715.363281 L 119.976562 709.605469 L 127.488281 616.011719 L 102.867188 492.039062 L 196.066406 492.039062 L 215.328125 585.699219 C 219.300781 605.011719 214.980469 625.109375 203.429688 641.085938 L 168.695312 689.109375 Z M 160.898438 758.441406 " fill-opacity="1" fill-rule="nonzero"/><path fill="#2f2f2f" d="M 101.796875 491.160156 L 196.78125 491.160156 L 216.1875 585.519531 C 220.210938 605.078125 215.839844 625.421875 204.140625 641.601562 L 169.542969 689.4375 L 161.683594 759.324219 L 115.101562 759.324219 L 117.742188 726.449219 L 110.460938 715.121094 L 119.132812 709.121094 L 126.601562 616.0625 Z M 118.949219 711.382812 L 112.859375 715.601562 L 117.976562 723.558594 Z M 119.535156 726.085938 L 119.582031 726.054688 L 119.542969 725.996094 L 128.371094 615.960938 L 103.9375 492.921875 L 195.347656 492.921875 L 214.46875 585.875 C 218.390625 604.949219 214.125 624.792969 202.714844 640.570312 L 169.945312 685.882812 L 177.605469 617.796875 L 173.222656 527.53125 L 182.648438 517.253906 L 181.351562 516.066406 L 171.429688 526.886719 L 175.839844 617.742188 L 160.109375 757.5625 L 117.007812 757.5625 Z M 119.535156 726.085938 " fill-opacity="1" fill-rule="evenodd"/><path fill="#ffffff" d="M 166.53125 767.238281 C 156.46875 765.691406 154.601562 760.144531 154.921875 757.5625 L 123.96875 757.5625 L 123.96875 783.683594 L 183.941406 783.683594 C 183.820312 782.203125 183.648438 780.871094 183.421875 779.660156 C 181.851562 771.351562 177.507812 768.925781 166.53125 767.238281 Z M 166.53125 767.238281 " fill-opacity="1" fill-rule="nonzero"/><path fill="#2f2f2f" d="M 123.089844 756.683594 L 155.921875 756.683594 L 155.796875 757.671875 C 155.667969 758.703125 155.96875 760.484375 157.492188 762.203125 C 159.007812 763.914062 161.78125 765.617188 166.664062 766.367188 C 172.160156 767.214844 176.171875 768.261719 179.007812 770.246094 C 181.90625 772.273438 183.472656 775.199219 184.285156 779.496094 C 184.519531 780.742188 184.695312 782.109375 184.816406 783.609375 L 184.898438 784.5625 L 123.089844 784.5625 Z M 124.847656 758.441406 L 124.847656 782.804688 L 182.976562 782.804688 C 182.867188 781.726562 182.730469 780.734375 182.558594 779.824219 C 181.800781 775.8125 180.40625 773.367188 178 771.6875 C 175.527344 769.957031 171.878906 768.949219 166.398438 768.105469 C 161.21875 767.308594 158.03125 765.464844 156.175781 763.371094 C 154.691406 761.695312 154.09375 759.890625 154.019531 758.441406 Z M 124.847656 758.441406 " fill-opacity="1" fill-rule="evenodd"/><path fill="#ffffff" d="M 139.769531 302.433594 C 139.957031 294.265625 146.589844 280.488281 146.589844 280.488281 C 146.589844 280.488281 158.644531 287.054688 158.707031 281.449219 C 158.773438 275.324219 166.367188 278.804688 176.292969 280.488281 C 178.082031 283.46875 181.371094 290.652344 180.191406 295.535156 C 179.070312 297.945312 190.632812 305.78125 189.125 307.554688 C 188.5 308.292969 184.089844 310.582031 183.460938 310.960938 C 183.492188 315.289062 183.402344 324.558594 182.8125 326.996094 C 182.222656 329.4375 174.828125 330.347656 171.203125 330.496094 C 170.019531 336.132812 169.113281 352.566406 171.375 357.46875 L 134.730469 341.109375 L 138.09375 333.871094 C 138.988281 331.941406 137.421875 328.476562 136.527344 326.988281 L 146.589844 318.730469 C 147.046875 313.113281 139.550781 312.273438 139.769531 302.433594 Z M 139.769531 302.433594 " fill-opacity="1" fill-rule="nonzero"/><path fill="#2f2f2f" d="M 173.015625 270.203125 C 168.4375 265.5625 161.207031 261.574219 154.144531 262.785156 C 144.28125 264.472656 132.207031 269.773438 129.027344 281.929688 L 128.933594 282.277344 L 128.628906 282.460938 C 123.386719 285.609375 120.433594 288.972656 118.984375 292.257812 C 117.539062 295.539062 117.546875 298.832031 118.390625 301.929688 C 120.089844 308.183594 125.167969 313.550781 128.265625 315.925781 C 132.71875 319.339844 135.546875 323.308594 136.820312 325.613281 L 145.734375 318.300781 C 145.757812 316.433594 144.726562 315.230469 143.269531 313.527344 C 143.054688 313.273438 142.828125 313.007812 142.59375 312.730469 C 140.730469 310.496094 138.777344 307.625 138.894531 302.414062 C 138.917969 301.257812 139.207031 300.304688 139.777344 299.578125 C 140.351562 298.84375 141.144531 298.433594 142 298.238281 C 143.660156 297.867188 145.71875 298.277344 147.605469 298.882812 C 149.53125 299.5 151.433594 300.378906 152.84375 301.09375 C 153.550781 301.449219 154.140625 301.769531 154.554688 302 C 154.761719 302.117188 154.925781 302.210938 155.039062 302.277344 C 155.074219 302.296875 155.105469 302.316406 155.128906 302.332031 C 155.144531 302.335938 155.15625 302.347656 155.167969 302.351562 L 155.203125 302.371094 L 155.214844 302.378906 C 155.214844 302.378906 155.214844 302.378906 154.761719 303.132812 L 155.214844 302.378906 C 155.628906 302.628906 155.765625 303.167969 155.515625 303.585938 C 155.269531 304.003906 154.726562 304.136719 154.3125 303.886719 L 154.273438 303.867188 C 154.246094 303.851562 154.207031 303.828125 154.15625 303.796875 C 154.050781 303.734375 153.894531 303.648438 153.699219 303.535156 C 153.300781 303.316406 152.730469 303.007812 152.050781 302.660156 C 150.679688 301.964844 148.867188 301.136719 147.066406 300.558594 C 145.230469 299.96875 143.558594 299.691406 142.386719 299.953125 C 141.828125 300.078125 141.433594 300.316406 141.160156 300.660156 C 140.886719 301.011719 140.671875 301.5625 140.652344 302.453125 C 140.546875 307.082031 142.234375 309.550781 143.945312 311.601562 C 144.152344 311.851562 144.367188 312.097656 144.578125 312.34375 C 146.105469 314.105469 147.699219 315.949219 147.46875 318.800781 L 147.4375 319.171875 L 137.65625 327.199219 C 138.0625 327.96875 138.511719 328.96875 138.828125 330.011719 C 139.226562 331.332031 139.488281 332.960938 138.890625 334.242188 L 135.902344 340.667969 L 169.929688 355.859375 C 169.667969 354.746094 169.480469 353.449219 169.351562 352.058594 C 169.136719 349.699219 169.074219 346.976562 169.117188 344.242188 C 169.210938 338.792969 169.734375 333.210938 170.34375 330.316406 L 170.484375 329.644531 L 171.167969 329.617188 C 172.945312 329.542969 175.644531 329.285156 177.949219 328.75 C 179.105469 328.480469 180.117188 328.15625 180.855469 327.773438 C 181.640625 327.367188 181.90625 327.011719 181.960938 326.789062 C 182.085938 326.261719 182.199219 325.289062 182.292969 324.007812 C 182.382812 322.746094 182.445312 321.238281 182.492188 319.660156 C 182.582031 316.511719 182.597656 313.121094 182.582031 310.964844 L 182.578125 310.464844 L 183.007812 310.203125 C 183.160156 310.113281 183.527344 309.914062 184.003906 309.65625 C 184.542969 309.359375 185.222656 308.988281 185.863281 308.625 C 186.488281 308.273438 187.105469 307.914062 187.597656 307.601562 C 187.84375 307.445312 188.050781 307.308594 188.207031 307.1875 C 188.269531 307.144531 188.320312 307.105469 188.363281 307.070312 C 188.351562 307.046875 188.339844 307.015625 188.324219 306.980469 C 188.207031 306.710938 187.949219 306.324219 187.535156 305.832031 C 186.746094 304.886719 185.570312 303.75 184.324219 302.542969 L 184.191406 302.414062 C 182.921875 301.183594 181.589844 299.886719 180.648438 298.738281 C 180.179688 298.167969 179.769531 297.589844 179.515625 297.039062 C 179.289062 296.542969 179.109375 295.890625 179.355469 295.261719 C 179.859375 293.070312 179.394531 290.273438 178.519531 287.570312 C 177.710938 285.070312 176.59375 282.761719 175.746094 281.289062 C 171.402344 280.625 168.003906 281.324219 165.628906 282.753906 C 163.191406 284.226562 161.777344 286.503906 161.488281 289.058594 C 161.433594 289.542969 160.996094 289.886719 160.515625 289.832031 C 160.03125 289.777344 159.683594 289.34375 159.738281 288.859375 C 160.09375 285.75 161.828125 282.996094 164.722656 281.25 C 167.570312 279.527344 171.492188 278.816406 176.257812 279.589844 C 176.894531 279.410156 177.207031 279.09375 177.359375 278.734375 C 177.546875 278.296875 177.574219 277.632812 177.320312 276.722656 C 176.816406 274.902344 175.296875 272.519531 173.015625 270.203125 Z M 177.570312 280.949219 C 178.210938 280.601562 178.691406 280.089844 178.976562 279.429688 C 179.382812 278.480469 179.324219 277.363281 179.015625 276.25 C 178.398438 274.027344 176.65625 271.394531 174.269531 268.96875 C 169.492188 264.125 161.710938 259.703125 153.847656 261.050781 C 143.890625 262.757812 131.007812 268.183594 127.417969 281.136719 C 122.140625 284.371094 118.980469 287.914062 117.375 291.550781 C 115.738281 295.261719 115.765625 298.980469 116.691406 302.390625 C 118.535156 309.160156 123.9375 314.824219 127.195312 317.320312 C 132.160156 321.128906 134.96875 325.640625 135.726562 327.34375 L 135.746094 327.394531 L 135.777344 327.4375 C 136.195312 328.136719 136.777344 329.308594 137.144531 330.519531 C 137.523438 331.78125 137.597656 332.851562 137.296875 333.5 L 133.554688 341.550781 L 173.152344 359.226562 L 172.171875 357.101562 C 171.675781 356.019531 171.316406 354.199219 171.105469 351.898438 C 170.894531 349.621094 170.832031 346.964844 170.878906 344.273438 C 170.960938 339.277344 171.414062 334.238281 171.9375 331.339844 C 173.75 331.230469 176.191406 330.964844 178.34375 330.464844 C 179.5625 330.179688 180.738281 329.8125 181.664062 329.335938 C 182.550781 328.875 183.425781 328.203125 183.667969 327.203125 C 183.835938 326.515625 183.953125 325.410156 184.046875 324.132812 C 184.136719 322.835938 184.203125 321.300781 184.25 319.710938 C 184.335938 316.777344 184.355469 313.644531 184.34375 311.472656 C 184.472656 311.402344 184.625 311.316406 184.792969 311.226562 C 185.316406 310.941406 186.003906 310.566406 186.726562 310.15625 C 187.363281 309.796875 188.007812 309.425781 188.539062 309.085938 C 188.804688 308.917969 189.046875 308.757812 189.253906 308.605469 C 189.441406 308.464844 189.652344 308.296875 189.796875 308.121094 C 190.324219 307.503906 190.144531 306.75 189.9375 306.273438 C 189.714844 305.769531 189.324219 305.230469 188.882812 304.703125 C 188.03125 303.683594 186.800781 302.492188 185.585938 301.316406 C 185.53125 301.261719 185.472656 301.207031 185.417969 301.152344 C 184.125 299.902344 182.871094 298.679688 182.007812 297.625 C 181.574219 297.09375 181.273438 296.652344 181.113281 296.304688 C 180.988281 296.023438 180.996094 295.910156 180.996094 295.894531 L 181.027344 295.828125 L 181.046875 295.742188 C 181.695312 293.058594 181.105469 289.851562 180.195312 287.027344 C 179.4375 284.683594 178.421875 282.503906 177.570312 280.949219 Z M 188.386719 307.167969 C 188.382812 307.164062 188.382812 307.160156 188.382812 307.152344 C 188.386719 307.160156 188.386719 307.167969 188.386719 307.167969 Z M 188.386719 307.167969 " fill-opacity="1" fill-rule="evenodd"/><path fill="#2f2f2f" d="M 146.589844 318.730469 C 147.046875 313.113281 139.550781 312.277344 139.773438 302.433594 C 139.800781 301.117188 140.210938 300.246094 140.875 299.707031 C 146.882812 292.535156 156.496094 290.214844 160.550781 289.949219 C 160.617188 283.820312 166.367188 278.804688 176.292969 280.488281 C 184.023438 278.734375 168.921875 259.363281 153.996094 261.917969 C 144.042969 263.625 131.492188 269.027344 128.175781 281.707031 C 106.765625 294.570312 121.375 311.75 127.730469 316.625 C 132.816406 320.523438 135.714844 325.160156 136.527344 326.988281 Z M 146.589844 318.730469 " fill-opacity="1" fill-rule="nonzero"/><path fill="#ffffff" d="M 199.582031 493.800781 L 117.730469 493.800781 L 117.730469 499.953125 L 93.195312 499.953125 L 87.664062 420.929688 C 87.257812 415.140625 88.652344 409.367188 91.660156 404.402344 L 117.816406 356.640625 C 124.398438 345.210938 132.019531 339.859375 136.320312 337.296875 L 162.117188 352.082031 C 172.195312 357.859375 178.769531 368.238281 179.6875 379.8125 L 180.222656 386.535156 L 244.421875 434.890625 L 232.113281 455.113281 L 183.574219 428.738281 L 184.792969 444.117188 Z M 199.582031 493.800781 " fill-opacity="1" fill-rule="nonzero"/><path fill="#2f2f2f" d="M 136.3125 336.28125 L 162.554688 351.320312 C 172.882812 357.238281 179.625 367.875 180.566406 379.742188 L 181.066406 386.070312 L 245.589844 434.667969 L 232.429688 456.285156 L 184.578125 430.285156 L 185.664062 443.953125 L 200.761719 494.679688 L 118.613281 494.679688 L 118.613281 500.832031 L 92.375 500.832031 L 86.785156 420.992188 C 86.371094 415.027344 87.804688 409.078125 90.898438 403.960938 L 117.054688 356.203125 C 123.730469 344.605469 131.480469 339.160156 135.871094 336.542969 Z M 118.613281 492.921875 L 198.402344 492.921875 L 183.925781 444.277344 L 178.8125 379.882812 C 177.917969 368.59375 171.503906 358.476562 161.679688 352.847656 L 136.332031 338.320312 C 132.054688 340.925781 124.851562 346.195312 118.582031 357.074219 L 92.421875 404.839844 L 92.410156 404.855469 C 89.5 409.667969 88.148438 415.261719 88.542969 420.871094 L 94.015625 499.074219 L 116.851562 499.074219 L 116.851562 417.90625 L 144.355469 379.300781 L 145.785156 380.324219 L 118.613281 418.46875 Z M 184.410156 428.191406 L 231.796875 453.941406 L 243.257812 435.113281 L 181.253906 388.414062 Z M 184.410156 428.191406 " fill-opacity="1" fill-rule="evenodd"/><path fill="#ffde59" d="M 37.824219 528.023438 L 16.253906 478.871094 C 13.894531 473.496094 16.378906 467.226562 21.777344 464.925781 L 44.003906 455.449219 L 72.632812 524.480469 L 51.644531 533.476562 C 46.320312 535.761719 40.152344 533.324219 37.824219 528.023438 Z M 37.824219 528.023438 " fill-opacity="1" fill-rule="nonzero"/><path fill="#ffffff" d="M 72.632812 524.480469 L 44.003906 455.449219 L 71.859375 443.574219 L 100.453125 512.550781 Z M 72.632812 524.480469 " fill-opacity="1" fill-rule="nonzero"/><path fill="#fff493" d="M 279.378906 355.089844 L 288.933594 377.339844 L 81.351562 466.476562 L 90.574219 488.71875 L 299.085938 400.976562 L 308.628906 423.195312 L 100.453125 512.550781 L 90.574219 488.71875 L 81.351562 466.476562 L 71.859375 443.570312 Z M 279.378906 355.089844 " fill-opacity="1" fill-rule="nonzero"/><path fill="#ffffff" d="M 279.382812 355.089844 L 313.789062 362.367188 L 327.617188 392.039062 L 308.585938 423.09375 L 299.089844 400.976562 L 90.574219 488.71875 L 81.355469 466.476562 L 288.933594 377.339844 Z M 279.382812 355.089844 " fill-opacity="1" fill-rule="nonzero"/><path fill="#2f2f2f" d="M 82.296875 508.4375 L 61.195312 457.214844 L 62.820312 456.542969 L 83.921875 507.765625 Z M 82.296875 508.4375 " fill-opacity="1" fill-rule="evenodd"/><path fill="#2f2f2f" d="M 279.292969 354.171875 L 343.53125 367.757812 L 309.574219 423.164062 L 310.046875 424.269531 L 308.433594 424.960938 L 308.203125 424.425781 L 51.996094 534.285156 C 46.226562 536.757812 39.546875 534.121094 37.023438 528.375 L 15.453125 479.222656 C 12.898438 473.402344 15.585938 466.613281 21.4375 464.117188 Z M 308.722656 421.1875 L 326.621094 391.984375 L 313.179688 363.136719 L 280.859375 356.300781 Z M 278.917969 356.246094 L 287.78125 376.878906 L 81.828125 465.316406 L 73.007812 444.039062 Z M 71.390625 444.730469 L 45.152344 455.917969 L 73.105469 523.320312 L 99.308594 512.085938 Z M 100.925781 511.390625 L 307.507812 422.8125 L 298.625 402.125 L 91.722656 489.191406 Z M 91.050781 487.566406 L 297.929688 400.511719 L 288.476562 378.492188 L 82.5 466.941406 Z M 71.488281 524.011719 L 43.535156 456.605469 L 22.125 465.734375 C 17.175781 467.84375 14.902344 473.589844 17.0625 478.519531 L 38.632812 527.667969 C 40.765625 532.527344 46.421875 534.761719 51.300781 532.667969 Z M 315.332031 363.589844 L 327.722656 390.183594 L 340.730469 368.960938 Z M 315.332031 363.589844 " fill-opacity="1" fill-rule="evenodd"/><path fill="#2f2f2f" d="M 313.789062 362.367188 L 342.128906 368.359375 L 327.617188 392.039062 Z M 313.789062 362.367188 " fill-opacity="1" fill-rule="nonzero"/><path fill="#2f2f2f" d="M 343.53125 367.757812 L 327.511719 393.894531 L 312.25 361.140625 Z M 315.332031 363.589844 L 327.722656 390.183594 L 340.730469 368.960938 Z M 315.332031 363.589844 " fill-opacity="1" fill-rule="evenodd"/><path fill="#ffffff" d="M 138.917969 484.128906 L 117.730469 418.1875 L 87.664062 420.929688 L 117.730469 497.316406 Z M 138.917969 484.128906 " fill-opacity="1" fill-rule="nonzero"/><path fill="#2f2f2f" d="M 137.871094 483.742188 L 116.894531 418.457031 L 118.570312 417.917969 L 139.960938 484.511719 L 117.300781 498.621094 L 86.847656 421.25 L 88.484375 420.609375 L 118.164062 496.011719 Z M 137.871094 483.742188 " fill-opacity="1" fill-rule="evenodd"/><path fill="#ffffff" d="M 130.992188 508.304688 C 145.511719 507.296875 154.730469 500.394531 148.574219 493.359375 C 145.9375 493.359375 138.582031 493.59375 135.398438 486.765625 L 119.941406 496.15625 C 120.769531 501.726562 123.730469 508.8125 130.992188 508.304688 Z M 130.992188 508.304688 " fill-opacity="1" fill-rule="nonzero"/><path fill="#2f2f2f" d="M 135.78125 485.503906 L 136.199219 486.394531 C 139.039062 492.496094 145.5 492.484375 148.359375 492.480469 C 148.433594 492.480469 148.507812 492.480469 148.574219 492.480469 L 148.972656 492.480469 L 149.238281 492.78125 C 150.898438 494.675781 151.605469 496.671875 151.335938 498.636719 C 151.070312 500.582031 149.871094 502.320312 148.089844 503.773438 C 144.542969 506.664062 138.402344 508.671875 131.050781 509.183594 C 127.066406 509.460938 124.238281 507.628906 122.34375 505.027344 C 120.476562 502.464844 119.496094 499.148438 119.070312 496.285156 L 118.984375 495.707031 Z M 120.902344 496.597656 C 121.347656 499.15625 122.246094 501.902344 123.765625 503.992188 C 125.371094 506.199219 127.65625 507.65625 130.929688 507.429688 C 138.101562 506.929688 143.828125 504.980469 146.980469 502.410156 C 148.550781 501.128906 149.410156 499.761719 149.59375 498.402344 C 149.765625 497.144531 149.382812 495.742188 148.167969 494.238281 C 145.398438 494.25 138.511719 494.183594 135.046875 488.007812 Z M 120.902344 496.597656 " fill-opacity="1" fill-rule="evenodd"/><path fill="#ffffff" d="M 252.335938 440.167969 C 248.816406 444.386719 244.714844 450.132812 243.542969 451.597656 L 237.386719 454.234375 C 247.9375 460.390625 271.679688 438.410156 270.796875 436.648438 C 269.917969 434.890625 256.730469 434.890625 252.335938 440.167969 Z M 252.335938 440.167969 " fill-opacity="1" fill-rule="nonzero"/><path fill="#2f2f2f" d="M 257.265625 437.964844 C 255.472656 438.652344 253.976562 439.570312 253.011719 440.730469 C 251.269531 442.824219 249.375 445.296875 247.761719 447.445312 C 247.1875 448.210938 246.644531 448.9375 246.15625 449.59375 C 245.296875 450.75 244.613281 451.667969 244.230469 452.144531 L 244.089844 452.316406 L 239.683594 454.207031 C 241.722656 454.695312 244.183594 454.394531 246.910156 453.496094 C 250.492188 452.3125 254.34375 450.136719 257.878906 447.6875 C 261.410156 445.242188 264.585938 442.554688 266.820312 440.375 C 267.9375 439.285156 268.804688 438.335938 269.351562 437.625 C 269.558594 437.359375 269.707031 437.144531 269.808594 436.972656 C 269.761719 436.953125 269.707031 436.929688 269.644531 436.910156 C 269.273438 436.78125 268.738281 436.667969 268.0625 436.589844 C 266.707031 436.433594 264.90625 436.429688 262.980469 436.644531 C 261.058594 436.859375 259.046875 437.285156 257.265625 437.964844 Z M 270.976562 435.605469 C 271.195312 435.75 271.433594 435.957031 271.585938 436.257812 C 271.738281 436.566406 271.710938 436.871094 271.671875 437.054688 C 271.628906 437.25 271.554688 437.433594 271.46875 437.597656 C 271.304688 437.929688 271.050781 438.304688 270.742188 438.699219 C 270.125 439.503906 269.195312 440.511719 268.046875 441.632812 C 265.746094 443.878906 262.492188 446.632812 258.878906 449.132812 C 255.273438 451.628906 251.265625 453.90625 247.460938 455.164062 C 243.683594 456.414062 239.910156 456.722656 236.945312 454.996094 L 235.4375 454.113281 L 242.992188 450.875 C 243.371094 450.390625 243.964844 449.589844 244.710938 448.589844 C 245.203125 447.929688 245.757812 447.183594 246.355469 446.386719 C 247.96875 444.238281 249.886719 441.730469 251.660156 439.605469 C 252.890625 438.128906 254.691406 437.066406 256.636719 436.324219 C 258.589844 435.574219 260.757812 435.121094 262.789062 434.898438 C 264.820312 434.671875 266.757812 434.667969 268.261719 434.84375 C 269.011719 434.929688 269.683594 435.0625 270.222656 435.25 C 270.492188 435.34375 270.75 435.460938 270.976562 435.605469 Z M 270.976562 435.605469 " fill-opacity="1" fill-rule="evenodd"/><g clip-path="url(#cd366c913b)"><path fill="#ffffff" d="M 220.027344 934.964844 L 220.027344 934.257812 L 547.964844 934.257812 L 547.964844 934.964844 Z M 220.027344 934.964844 " fill-opacity="1" fill-rule="nonzero"/></g><g fill="#ffffff" fill-opacity="1"><g transform="translate(291.538991, 964.056763)"><g><path d="M 2.078125 0 L 2.078125 -15.9375 L 8.46875 -15.9375 C 10.125 -15.9375 11.367188 -15.554688 12.203125 -14.796875 C 13.046875 -14.035156 13.46875 -12.988281 13.46875 -11.65625 C 13.46875 -10.6875 13.222656 -9.890625 12.734375 -9.265625 C 12.242188 -8.648438 11.507812 -8.179688 10.53125 -7.859375 L 10.53125 -7.625 C 11.03125 -7.40625 11.429688 -7.082031 11.734375 -6.65625 C 12.046875 -6.226562 12.34375 -5.59375 12.625 -4.75 L 14.21875 0 L 10.984375 0 L 9.421875 -4.765625 C 9.265625 -5.242188 9.082031 -5.613281 8.875 -5.875 C 8.675781 -6.144531 8.421875 -6.335938 8.109375 -6.453125 C 7.804688 -6.578125 7.40625 -6.640625 6.90625 -6.640625 L 5.21875 -6.640625 L 5.21875 0 Z M 8.09375 -9.140625 C 9.613281 -9.140625 10.375 -9.847656 10.375 -11.265625 C 10.375 -12.710938 9.613281 -13.4375 8.09375 -13.4375 L 5.21875 -13.4375 L 5.21875 -9.140625 Z M 8.09375 -9.140625 "/></g></g></g><g fill="#ffffff" fill-opacity="1"><g transform="translate(306.439976, 964.056763)"><g><path d="M 11.890625 -5.328125 L 4.15625 -5.328125 C 4.238281 -4.285156 4.535156 -3.523438 5.046875 -3.046875 C 5.554688 -2.566406 6.25 -2.328125 7.125 -2.328125 C 7.820312 -2.328125 8.382812 -2.457031 8.8125 -2.71875 C 9.238281 -2.976562 9.582031 -3.367188 9.84375 -3.890625 L 10.078125 -3.890625 L 12.078125 -2.609375 C 11.679688 -1.765625 11.085938 -1.078125 10.296875 -0.546875 C 9.503906 -0.0234375 8.445312 0.234375 7.125 0.234375 C 5.882812 0.234375 4.8125 0 3.90625 -0.46875 C 3 -0.945312 2.300781 -1.648438 1.8125 -2.578125 C 1.320312 -3.515625 1.078125 -4.65625 1.078125 -6 C 1.078125 -7.375 1.332031 -8.53125 1.84375 -9.46875 C 2.363281 -10.40625 3.0625 -11.101562 3.9375 -11.5625 C 4.820312 -12.019531 5.8125 -12.25 6.90625 -12.25 C 8.613281 -12.25 9.914062 -11.796875 10.8125 -10.890625 C 11.71875 -9.992188 12.171875 -8.675781 12.171875 -6.9375 C 12.171875 -6.300781 12.148438 -5.8125 12.109375 -5.46875 Z M 9.28125 -7.28125 C 9.257812 -8.195312 9.050781 -8.863281 8.65625 -9.28125 C 8.257812 -9.695312 7.675781 -9.90625 6.90625 -9.90625 C 5.382812 -9.90625 4.488281 -9.03125 4.21875 -7.28125 Z M 9.28125 -7.28125 "/></g></g></g><g fill="#ffffff" fill-opacity="1"><g transform="translate(319.509678, 964.056763)"><g><path d="M 4.6875 0.234375 C 3.914062 0.234375 3.242188 0.09375 2.671875 -0.1875 C 2.109375 -0.476562 1.675781 -0.894531 1.375 -1.4375 C 1.070312 -1.988281 0.921875 -2.648438 0.921875 -3.421875 C 0.921875 -4.128906 1.070312 -4.722656 1.375 -5.203125 C 1.675781 -5.691406 2.144531 -6.09375 2.78125 -6.40625 C 3.425781 -6.71875 4.265625 -6.957031 5.296875 -7.125 C 6.015625 -7.238281 6.5625 -7.363281 6.9375 -7.5 C 7.3125 -7.632812 7.5625 -7.789062 7.6875 -7.96875 C 7.820312 -8.144531 7.890625 -8.367188 7.890625 -8.640625 C 7.890625 -9.023438 7.753906 -9.316406 7.484375 -9.515625 C 7.222656 -9.722656 6.78125 -9.828125 6.15625 -9.828125 C 5.476562 -9.828125 4.835938 -9.675781 4.234375 -9.375 C 3.640625 -9.070312 3.117188 -8.679688 2.671875 -8.203125 L 2.453125 -8.203125 L 1.1875 -10.109375 C 1.800781 -10.785156 2.546875 -11.3125 3.421875 -11.6875 C 4.304688 -12.0625 5.265625 -12.25 6.296875 -12.25 C 7.890625 -12.25 9.039062 -11.910156 9.75 -11.234375 C 10.46875 -10.554688 10.828125 -9.597656 10.828125 -8.359375 L 10.828125 -3.140625 C 10.828125 -2.597656 11.0625 -2.328125 11.53125 -2.328125 C 11.71875 -2.328125 11.894531 -2.363281 12.0625 -2.4375 L 12.21875 -2.390625 L 12.4375 -0.28125 C 12.269531 -0.175781 12.035156 -0.0859375 11.734375 -0.015625 C 11.441406 0.0546875 11.117188 0.09375 10.765625 0.09375 C 10.046875 0.09375 9.484375 -0.0390625 9.078125 -0.3125 C 8.671875 -0.59375 8.378906 -1.03125 8.203125 -1.625 L 7.984375 -1.640625 C 7.390625 -0.390625 6.289062 0.234375 4.6875 0.234375 Z M 5.640625 -2.03125 C 6.335938 -2.03125 6.894531 -2.265625 7.3125 -2.734375 C 7.738281 -3.203125 7.953125 -3.851562 7.953125 -4.6875 L 7.953125 -5.90625 L 7.734375 -5.953125 C 7.554688 -5.804688 7.316406 -5.679688 7.015625 -5.578125 C 6.722656 -5.484375 6.300781 -5.390625 5.75 -5.296875 C 5.101562 -5.191406 4.632812 -5.003906 4.34375 -4.734375 C 4.050781 -4.472656 3.90625 -4.097656 3.90625 -3.609375 C 3.90625 -3.085938 4.054688 -2.691406 4.359375 -2.421875 C 4.671875 -2.160156 5.097656 -2.03125 5.640625 -2.03125 Z M 5.640625 -2.03125 "/></g></g></g><g fill="#ffffff" fill-opacity="1"><g transform="translate(332.186962, 964.056763)"><g><path d="M 7.015625 0.234375 C 5.847656 0.234375 4.816406 -0.00390625 3.921875 -0.484375 C 3.023438 -0.972656 2.328125 -1.6875 1.828125 -2.625 C 1.328125 -3.5625 1.078125 -4.6875 1.078125 -6 C 1.078125 -7.320312 1.328125 -8.453125 1.828125 -9.390625 C 2.328125 -10.328125 3.019531 -11.035156 3.90625 -11.515625 C 4.800781 -12.003906 5.816406 -12.25 6.953125 -12.25 C 9.492188 -12.25 11.117188 -11.332031 11.828125 -9.5 L 9.75 -8.015625 L 9.53125 -8.015625 C 9.28125 -8.578125 8.957031 -8.992188 8.5625 -9.265625 C 8.164062 -9.546875 7.628906 -9.6875 6.953125 -9.6875 C 6.078125 -9.6875 5.394531 -9.382812 4.90625 -8.78125 C 4.425781 -8.175781 4.1875 -7.25 4.1875 -6 C 4.1875 -4.769531 4.429688 -3.847656 4.921875 -3.234375 C 5.421875 -2.628906 6.117188 -2.328125 7.015625 -2.328125 C 7.660156 -2.328125 8.210938 -2.503906 8.671875 -2.859375 C 9.128906 -3.210938 9.457031 -3.71875 9.65625 -4.375 L 9.875 -4.40625 L 12.03125 -3.234375 C 11.71875 -2.210938 11.148438 -1.378906 10.328125 -0.734375 C 9.503906 -0.0859375 8.398438 0.234375 7.015625 0.234375 Z M 7.015625 0.234375 "/></g></g></g><g fill="#ffffff" fill-opacity="1"><g transform="translate(344.580833, 964.056763)"><g><path d="M 1.734375 0 L 1.734375 -16.859375 L 4.75 -16.859375 L 4.75 -10.453125 L 4.984375 -10.40625 C 5.378906 -11 5.867188 -11.453125 6.453125 -11.765625 C 7.035156 -12.085938 7.738281 -12.25 8.5625 -12.25 C 11.207031 -12.25 12.53125 -10.742188 12.53125 -7.734375 L 12.53125 0 L 9.515625 0 L 9.515625 -7.359375 C 9.515625 -8.179688 9.347656 -8.773438 9.015625 -9.140625 C 8.691406 -9.515625 8.1875 -9.703125 7.5 -9.703125 C 6.65625 -9.703125 5.984375 -9.421875 5.484375 -8.859375 C 4.992188 -8.296875 4.75 -7.414062 4.75 -6.21875 L 4.75 0 Z M 1.734375 0 "/></g></g></g><g fill="#ffffff" fill-opacity="1"><g transform="translate(358.664275, 964.056763)"><g/></g></g><g fill="#ffffff" fill-opacity="1"><g transform="translate(363.929221, 964.056763)"><g><path d="M 8.453125 0.234375 C 6.253906 0.234375 4.625 -0.285156 3.5625 -1.328125 C 2.5 -2.378906 1.96875 -3.925781 1.96875 -5.96875 L 1.96875 -15.9375 L 5.0625 -15.9375 L 5.0625 -6 C 5.0625 -4.832031 5.335938 -3.957031 5.890625 -3.375 C 6.453125 -2.789062 7.304688 -2.5 8.453125 -2.5 C 10.710938 -2.5 11.84375 -3.664062 11.84375 -6 L 11.84375 -15.9375 L 14.921875 -15.9375 L 14.921875 -5.96875 C 14.921875 -3.925781 14.390625 -2.378906 13.328125 -1.328125 C 12.265625 -0.285156 10.640625 0.234375 8.453125 0.234375 Z M 8.453125 0.234375 "/></g></g></g><g fill="#ffffff" fill-opacity="1"><g transform="translate(380.824991, 964.056763)"><g><path d="M 5.625 0.234375 C 4.800781 0.234375 4.046875 0.140625 3.359375 -0.046875 C 2.679688 -0.242188 2.097656 -0.507812 1.609375 -0.84375 C 1.128906 -1.1875 0.773438 -1.578125 0.546875 -2.015625 L 2.21875 -3.828125 L 2.453125 -3.828125 C 2.847656 -3.285156 3.316406 -2.878906 3.859375 -2.609375 C 4.410156 -2.347656 5.003906 -2.21875 5.640625 -2.21875 C 6.234375 -2.21875 6.675781 -2.320312 6.96875 -2.53125 C 7.269531 -2.738281 7.421875 -3.039062 7.421875 -3.4375 C 7.421875 -3.738281 7.3125 -3.992188 7.09375 -4.203125 C 6.882812 -4.410156 6.539062 -4.570312 6.0625 -4.6875 L 4.46875 -5.0625 C 3.28125 -5.351562 2.410156 -5.789062 1.859375 -6.375 C 1.304688 -6.957031 1.03125 -7.703125 1.03125 -8.609375 C 1.03125 -9.347656 1.222656 -9.992188 1.609375 -10.546875 C 1.992188 -11.097656 2.53125 -11.519531 3.21875 -11.8125 C 3.914062 -12.101562 4.722656 -12.25 5.640625 -12.25 C 6.722656 -12.25 7.617188 -12.09375 8.328125 -11.78125 C 9.046875 -11.46875 9.609375 -11.050781 10.015625 -10.53125 L 8.390625 -8.78125 L 8.171875 -8.78125 C 7.835938 -9.164062 7.460938 -9.441406 7.046875 -9.609375 C 6.628906 -9.785156 6.160156 -9.875 5.640625 -9.875 C 4.453125 -9.875 3.859375 -9.503906 3.859375 -8.765625 C 3.859375 -8.453125 3.96875 -8.195312 4.1875 -8 C 4.414062 -7.800781 4.804688 -7.640625 5.359375 -7.515625 L 6.84375 -7.203125 C 8.0625 -6.929688 8.953125 -6.503906 9.515625 -5.921875 C 10.085938 -5.347656 10.375 -4.578125 10.375 -3.609375 C 10.375 -2.847656 10.179688 -2.175781 9.796875 -1.59375 C 9.421875 -1.007812 8.875 -0.554688 8.15625 -0.234375 C 7.445312 0.078125 6.601562 0.234375 5.625 0.234375 Z M 5.625 0.234375 "/></g></g></g><g fill="#ffffff" fill-opacity="1"><g transform="translate(391.910802, 964.056763)"><g/></g></g><g fill="#ffffff" fill-opacity="1"><g transform="translate(397.175748, 964.056763)"><g><path d="M 6.515625 0.234375 C 5.359375 0.234375 4.347656 0.0351562 3.484375 -0.359375 C 2.617188 -0.753906 1.953125 -1.316406 1.484375 -2.046875 C 1.015625 -2.773438 0.78125 -3.625 0.78125 -4.59375 C 0.78125 -5.644531 1.039062 -6.515625 1.5625 -7.203125 C 2.09375 -7.898438 2.882812 -8.472656 3.9375 -8.921875 L 3.953125 -9.140625 C 3.472656 -9.734375 3.128906 -10.28125 2.921875 -10.78125 C 2.710938 -11.28125 2.609375 -11.828125 2.609375 -12.421875 C 2.609375 -13.148438 2.78125 -13.796875 3.125 -14.359375 C 3.476562 -14.929688 3.984375 -15.375 4.640625 -15.6875 C 5.304688 -16.007812 6.097656 -16.171875 7.015625 -16.171875 C 7.890625 -16.171875 8.632812 -16.023438 9.25 -15.734375 C 9.875 -15.441406 10.347656 -15.035156 10.671875 -14.515625 C 11.003906 -14.003906 11.171875 -13.410156 11.171875 -12.734375 C 11.171875 -11.828125 10.898438 -11.035156 10.359375 -10.359375 C 9.816406 -9.691406 8.976562 -9.144531 7.84375 -8.71875 L 7.8125 -8.484375 L 10.765625 -4.59375 C 10.929688 -4.96875 11.050781 -5.398438 11.125 -5.890625 C 11.195312 -6.378906 11.234375 -6.9375 11.234375 -7.5625 L 11.21875 -8.109375 L 13.765625 -8.109375 C 13.765625 -5.867188 13.328125 -4.0625 12.453125 -2.6875 C 12.628906 -2.539062 12.785156 -2.4375 12.921875 -2.375 C 13.054688 -2.320312 13.203125 -2.296875 13.359375 -2.296875 C 13.515625 -2.296875 13.640625 -2.300781 13.734375 -2.3125 C 13.828125 -2.320312 13.929688 -2.347656 14.046875 -2.390625 L 14.21875 -2.34375 L 14.59375 -0.15625 C 14.457031 -0.0625 14.257812 0.0078125 14 0.0625 C 13.75 0.113281 13.46875 0.140625 13.15625 0.140625 C 12.625 0.140625 12.15625 0.0546875 11.75 -0.109375 C 11.351562 -0.285156 10.972656 -0.554688 10.609375 -0.921875 L 10.375 -0.921875 C 9.476562 -0.148438 8.191406 0.234375 6.515625 0.234375 Z M 6.515625 -10.21875 C 7.179688 -10.550781 7.664062 -10.890625 7.96875 -11.234375 C 8.28125 -11.578125 8.4375 -12.007812 8.4375 -12.53125 C 8.4375 -12.976562 8.304688 -13.320312 8.046875 -13.5625 C 7.785156 -13.8125 7.429688 -13.9375 6.984375 -13.9375 C 6.535156 -13.9375 6.175781 -13.800781 5.90625 -13.53125 C 5.632812 -13.269531 5.5 -12.914062 5.5 -12.46875 C 5.5 -12.113281 5.570312 -11.78125 5.71875 -11.46875 C 5.863281 -11.164062 6.128906 -10.75 6.515625 -10.21875 Z M 6.90625 -2.359375 C 7.601562 -2.359375 8.195312 -2.492188 8.6875 -2.765625 L 5.140625 -7.28125 C 4.722656 -7.007812 4.410156 -6.6875 4.203125 -6.3125 C 4.003906 -5.9375 3.90625 -5.492188 3.90625 -4.984375 C 3.90625 -4.460938 4.023438 -4.003906 4.265625 -3.609375 C 4.515625 -3.210938 4.863281 -2.90625 5.3125 -2.6875 C 5.769531 -2.46875 6.300781 -2.359375 6.90625 -2.359375 Z M 6.90625 -2.359375 "/></g></g></g><g fill="#ffffff" fill-opacity="1"><g transform="translate(412.065827, 964.056763)"><g/></g></g><g fill="#ffffff" fill-opacity="1"><g transform="translate(417.330772, 964.056763)"><g><path d="M 2.078125 0 L 2.078125 -15.9375 L 8.46875 -15.9375 C 10.125 -15.9375 11.367188 -15.554688 12.203125 -14.796875 C 13.046875 -14.035156 13.46875 -12.988281 13.46875 -11.65625 C 13.46875 -10.6875 13.222656 -9.890625 12.734375 -9.265625 C 12.242188 -8.648438 11.507812 -8.179688 10.53125 -7.859375 L 10.53125 -7.625 C 11.03125 -7.40625 11.429688 -7.082031 11.734375 -6.65625 C 12.046875 -6.226562 12.34375 -5.59375 12.625 -4.75 L 14.21875 0 L 10.984375 0 L 9.421875 -4.765625 C 9.265625 -5.242188 9.082031 -5.613281 8.875 -5.875 C 8.675781 -6.144531 8.421875 -6.335938 8.109375 -6.453125 C 7.804688 -6.578125 7.40625 -6.640625 6.90625 -6.640625 L 5.21875 -6.640625 L 5.21875 0 Z M 8.09375 -9.140625 C 9.613281 -9.140625 10.375 -9.847656 10.375 -11.265625 C 10.375 -12.710938 9.613281 -13.4375 8.09375 -13.4375 L 5.21875 -13.4375 L 5.21875 -9.140625 Z M 8.09375 -9.140625 "/></g></g></g><g fill="#ffffff" fill-opacity="1"><g transform="translate(432.231757, 964.056763)"><g><path d="M 11.890625 -5.328125 L 4.15625 -5.328125 C 4.238281 -4.285156 4.535156 -3.523438 5.046875 -3.046875 C 5.554688 -2.566406 6.25 -2.328125 7.125 -2.328125 C 7.820312 -2.328125 8.382812 -2.457031 8.8125 -2.71875 C 9.238281 -2.976562 9.582031 -3.367188 9.84375 -3.890625 L 10.078125 -3.890625 L 12.078125 -2.609375 C 11.679688 -1.765625 11.085938 -1.078125 10.296875 -0.546875 C 9.503906 -0.0234375 8.445312 0.234375 7.125 0.234375 C 5.882812 0.234375 4.8125 0 3.90625 -0.46875 C 3 -0.945312 2.300781 -1.648438 1.8125 -2.578125 C 1.320312 -3.515625 1.078125 -4.65625 1.078125 -6 C 1.078125 -7.375 1.332031 -8.53125 1.84375 -9.46875 C 2.363281 -10.40625 3.0625 -11.101562 3.9375 -11.5625 C 4.820312 -12.019531 5.8125 -12.25 6.90625 -12.25 C 8.613281 -12.25 9.914062 -11.796875 10.8125 -10.890625 C 11.71875 -9.992188 12.171875 -8.675781 12.171875 -6.9375 C 12.171875 -6.300781 12.148438 -5.8125 12.109375 -5.46875 Z M 9.28125 -7.28125 C 9.257812 -8.195312 9.050781 -8.863281 8.65625 -9.28125 C 8.257812 -9.695312 7.675781 -9.90625 6.90625 -9.90625 C 5.382812 -9.90625 4.488281 -9.03125 4.21875 -7.28125 Z M 9.28125 -7.28125 "/></g></g></g><g fill="#ffffff" fill-opacity="1"><g transform="translate(445.301459, 964.056763)"><g><path d="M 5 0.234375 C 3.914062 0.234375 3.085938 -0.0546875 2.515625 -0.640625 C 1.941406 -1.234375 1.65625 -2.125 1.65625 -3.3125 L 1.65625 -16.859375 L 4.671875 -16.859375 L 4.671875 -3.4375 C 4.671875 -2.695312 4.976562 -2.328125 5.59375 -2.328125 C 5.769531 -2.328125 5.957031 -2.359375 6.15625 -2.421875 L 6.296875 -2.375 L 6.578125 -0.046875 C 6.410156 0.0351562 6.1875 0.101562 5.90625 0.15625 C 5.632812 0.207031 5.332031 0.234375 5 0.234375 Z M 5 0.234375 "/></g></g></g><g fill="#ffffff" fill-opacity="1"><g transform="translate(452.212374, 964.056763)"><g><path d="M 4.6875 0.234375 C 3.914062 0.234375 3.242188 0.09375 2.671875 -0.1875 C 2.109375 -0.476562 1.675781 -0.894531 1.375 -1.4375 C 1.070312 -1.988281 0.921875 -2.648438 0.921875 -3.421875 C 0.921875 -4.128906 1.070312 -4.722656 1.375 -5.203125 C 1.675781 -5.691406 2.144531 -6.09375 2.78125 -6.40625 C 3.425781 -6.71875 4.265625 -6.957031 5.296875 -7.125 C 6.015625 -7.238281 6.5625 -7.363281 6.9375 -7.5 C 7.3125 -7.632812 7.5625 -7.789062 7.6875 -7.96875 C 7.820312 -8.144531 7.890625 -8.367188 7.890625 -8.640625 C 7.890625 -9.023438 7.753906 -9.316406 7.484375 -9.515625 C 7.222656 -9.722656 6.78125 -9.828125 6.15625 -9.828125 C 5.476562 -9.828125 4.835938 -9.675781 4.234375 -9.375 C 3.640625 -9.070312 3.117188 -8.679688 2.671875 -8.203125 L 2.453125 -8.203125 L 1.1875 -10.109375 C 1.800781 -10.785156 2.546875 -11.3125 3.421875 -11.6875 C 4.304688 -12.0625 5.265625 -12.25 6.296875 -12.25 C 7.890625 -12.25 9.039062 -11.910156 9.75 -11.234375 C 10.46875 -10.554688 10.828125 -9.597656 10.828125 -8.359375 L 10.828125 -3.140625 C 10.828125 -2.597656 11.0625 -2.328125 11.53125 -2.328125 C 11.71875 -2.328125 11.894531 -2.363281 12.0625 -2.4375 L 12.21875 -2.390625 L 12.4375 -0.28125 C 12.269531 -0.175781 12.035156 -0.0859375 11.734375 -0.015625 C 11.441406 0.0546875 11.117188 0.09375 10.765625 0.09375 C 10.046875 0.09375 9.484375 -0.0390625 9.078125 -0.3125 C 8.671875 -0.59375 8.378906 -1.03125 8.203125 -1.625 L 7.984375 -1.640625 C 7.390625 -0.390625 6.289062 0.234375 4.6875 0.234375 Z M 5.640625 -2.03125 C 6.335938 -2.03125 6.894531 -2.265625 7.3125 -2.734375 C 7.738281 -3.203125 7.953125 -3.851562 7.953125 -4.6875 L 7.953125 -5.90625 L 7.734375 -5.953125 C 7.554688 -5.804688 7.316406 -5.679688 7.015625 -5.578125 C 6.722656 -5.484375 6.300781 -5.390625 5.75 -5.296875 C 5.101562 -5.191406 4.632812 -5.003906 4.34375 -4.734375 C 4.050781 -4.472656 3.90625 -4.097656 3.90625 -3.609375 C 3.90625 -3.085938 4.054688 -2.691406 4.359375 -2.421875 C 4.671875 -2.160156 5.097656 -2.03125 5.640625 -2.03125 Z M 5.640625 -2.03125 "/></g></g></g><g fill="#ffffff" fill-opacity="1"><g transform="translate(464.889658, 964.056763)"><g><path d="M 3.390625 0 L 0.203125 0 L 3.640625 -6.234375 L 0.390625 -12.03125 L 3.625 -12.03125 L 5.703125 -8.0625 L 5.953125 -8.0625 L 8.046875 -12.03125 L 11.171875 -12.03125 L 8.03125 -6.234375 L 11.359375 0 L 8.140625 0 L 5.875 -4.390625 L 5.625 -4.390625 Z M 3.390625 0 "/></g></g></g></svg>